<svg xmlns="http://www.w3.org/2000/svg" width="569.16" height="569.16"><path d="M220.875 515.154H348.29c10.549 0 19.08-8.534 19.08-19.079s-8.535-19.079-19.08-19.079H220.875c-10.545 0-19.079 8.534-19.079 19.079s8.532 19.079 19.079 19.079zm0 54.006H348.29c10.549 0 19.08-8.534 19.08-19.079s-8.535-19.079-19.08-19.079H220.875c-10.545 0-19.079 8.534-19.079 19.079s8.532 19.079 19.079 19.079zM284.582 0C179.195 0 93.784 85.411 93.784 190.797c0 66.962 34.896 125.234 87.143 159.251 4.489 2.922 8.256 9.434 8.256 14.792v54.915c0 21.092 17.068 38.158 38.158 38.158h114.478c21.053 0 38.158-17.069 38.158-38.158v-54.918c0-5.358 3.77-11.867 8.262-14.789 52.242-33.987 87.137-92.29 87.137-159.251C475.378 85.411 389.968 0 284.582 0z"/></svg>