<svg height="512pt" viewBox="0 -115 512 512" width="512pt" xmlns="http://www.w3.org/2000/svg"><path d="M103.863 68.969l-40.605 64.148-48.188 14.336A21.081 21.081 0 0 0 0 167.66v52.246c0 5.926 4.805 10.73 10.727 10.73h194.636V63.977h-92.437a10.72 10.72 0 0 0-9.063 4.993zm0 0" fill="#9c9c9c"/><path d="M205.363 63.977h-20.492v142.14c0 7.102-5.754 12.856-12.851 12.856H0v.937c0 5.926 4.805 10.727 10.727 10.727h194.636zm0 0" fill="#838383"/><path d="M132.785 238.473c0 24.05-19.5 43.547-43.55 43.547s-43.547-19.497-43.547-43.547c0-24.055 19.496-43.551 43.546-43.551s43.551 19.496 43.551 43.55zm0 0" fill="#5a5a5a"/><path d="M103.973 197.484a43.346 43.346 0 0 1 7.96 25.086c0 24.051-19.496 43.551-43.546 43.551a43.448 43.448 0 0 1-14.739-2.562c7.883 11.164 20.88 18.46 35.586 18.46 24.051 0 43.551-19.496 43.551-43.546 0-18.88-12.015-34.946-28.812-40.989zm0 0" fill="#444"/><path d="M106 238.473c0 9.257-7.504 16.765-16.766 16.765-9.257 0-16.765-7.508-16.765-16.765 0-9.262 7.508-16.77 16.765-16.77 9.262 0 16.766 7.508 16.766 16.77zm0 0" fill="#e7e7e7"/><path d="M205.363 183.137V132.98H63.343l-.085.137-48.188 14.336A21.081 21.081 0 0 0 0 167.66v15.477zm0 0" fill="#ff6930"/><path d="M184.871 132.98h20.492v50.157h-20.492zm0 0" fill="#ff5426"/><path d="M507 230.781H199.133V5a5 5 0 0 1 5-5H507a5 5 0 0 1 5 5v220.781a5 5 0 0 1-5 5zm0 0" fill="#e7e7e7"/><path d="M506.879 0h-34.887a5.121 5.121 0 0 1 5.121 5.121v220.54a5.121 5.121 0 0 1-5.12 5.12h34.886a5.121 5.121 0 0 0 5.121-5.12V5.12A5.121 5.121 0 0 0 506.879 0zm0 0" fill="#cecece"/><path d="M439.988 238.473c0 24.05-19.496 43.547-43.547 43.547-24.054 0-43.55-19.497-43.55-43.547 0-24.055 19.496-43.551 43.55-43.551 24.051 0 43.547 19.496 43.547 43.55zm0 0" fill="#5a5a5a"/><path d="M411.18 197.484a43.346 43.346 0 0 1 7.96 25.086c0 24.051-19.495 43.551-43.55 43.551a43.464 43.464 0 0 1-14.738-2.562c7.886 11.164 20.878 18.46 35.59 18.46 24.05 0 43.546-19.496 43.546-43.546 0-18.88-12.011-34.946-28.808-40.989zm0 0" fill="#444"/><path d="M413.207 238.473c0 9.257-7.508 16.765-16.766 16.765-9.261 0-16.765-7.508-16.765-16.765 0-9.262 7.504-16.77 16.765-16.77 9.258 0 16.766 7.508 16.766 16.77zm0 0" fill="#e7e7e7"/><path d="M93.656 222.313a16.664 16.664 0 0 1 2.313 8.468c0 9.262-7.504 16.766-16.766 16.766-1.531 0-3.012-.223-4.422-.606 2.914 4.957 8.29 8.297 14.453 8.297 9.262 0 16.77-7.508 16.77-16.765 0-7.73-5.238-14.22-12.348-16.16zm307.204 0a16.667 16.667 0 0 1 2.316 8.468c0 9.262-7.508 16.766-16.77 16.766-1.531 0-3.008-.223-4.418-.606 2.91 4.957 8.285 8.297 14.453 8.297 9.258 0 16.766-7.508 16.766-16.765 0-7.73-5.234-14.22-12.348-16.16zm0 0" fill="#cecece"/><path d="M199.133 132.98H512v50.157H199.133zm0 0" fill="#ff6930"/><path d="M477.113 132.98H512v50.157h-34.887zm0 0" fill="#ff5426"/><path d="M407.063 53.203l-8.395-14.5a3.072 3.072 0 0 0-4.2-1.121l-21.386 12.375a1.026 1.026 0 0 1-1.539-.887V27.527a3.075 3.075 0 0 0-3.074-3.074H351.71a3.077 3.077 0 0 0-3.074 3.074v20.66c0 .79-.856 1.282-1.535.887l-19.864-11.492a3.073 3.073 0 0 0-4.199 1.121l-8.394 14.504a3.076 3.076 0 0 0 1.12 4.2l20.692 11.972a1.023 1.023 0 0 1 0 1.773l-20.691 11.973a3.076 3.076 0 0 0-1.121 4.2l8.394 14.503a3.073 3.073 0 0 0 4.2 1.121l19.863-11.492a1.024 1.024 0 0 1 1.535.887v20.66a3.077 3.077 0 0 0 3.074 3.074h16.758a3.075 3.075 0 0 0 3.074-3.074V91.46c0-.79.855-1.281 1.539-.887l21.387 12.375a3.068 3.068 0 0 0 4.199-1.12l8.394-14.5a3.075 3.075 0 0 0-1.12-4.2L385.25 71.152a1.026 1.026 0 0 1 0-1.773l20.691-11.973a3.08 3.08 0 0 0 1.121-4.203zm0 0" fill="#678d98"/><path d="M405.941 83.125L385.25 71.152a1.026 1.026 0 0 1 0-1.773l20.691-11.977a3.075 3.075 0 0 0 1.122-4.199L398.668 38.7a3.075 3.075 0 0 0-4.2-1.12l-9.378 5.429 5.902 10.195a3.072 3.072 0 0 1-1.12 4.2l-18.993 10.992c-1.438.832-1.438 2.906 0 3.738l18.992 10.992a3.072 3.072 0 0 1 1.121 4.2L385.09 97.52l9.379 5.43a3.075 3.075 0 0 0 4.199-1.122l8.395-14.504a3.075 3.075 0 0 0-1.122-4.199zm0 0" fill="#537983"/><path d="M167.363 137.934h-67.91c-3.558 0-5.723-3.91-3.84-6.926l23.48-37.567a9.977 9.977 0 0 1 8.462-4.691h39.808c2.5 0 4.528 2.027 4.528 4.527v40.13c0 2.5-2.028 4.527-4.528 4.527zm0 0" fill="#d5f3f7"/><path d="M167.363 88.75h-15.71c2.5 0 4.527 2.027 4.527 4.527v40.13c0 2.5-2.028 4.527-4.528 4.527h15.711c2.5 0 4.528-2.028 4.528-4.528V93.277c0-2.5-2.028-4.527-4.528-4.527zm0 0" fill="#a7e8f1"/><path d="M148.531 158.129v7.484a7.485 7.485 0 0 0 14.969 0v-7.484c0-4.137-3.352-7.484-7.484-7.484s-7.485 3.347-7.485 7.484zm0 0" fill="#5a5a5a"/></svg>