<svg xmlns="http://www.w3.org/2000/svg" viewBox="0 0 439.801 439.801"><path d="M267.689 159.358a59.837 59.837 0 0 0-3.782.906c-3.132.843-9.802 1.502-16.876 1.502-.283 0-.567-.003-.852-.006l1.559 12.324c4.292-.645 8.935-1.825 13.933-3.717.587-.223 1.274-.42 2.053-.602 1.061-3.808 2.38-7.284 3.965-10.407z" fill="#e5cbbd"/><path d="M227.723 151.126h-.002c-1.423 0-2.833-.15-4.215-.43.897.963 2.342 2.185 4.759 3.402 9.079 4.576 30.735 2.307 34.343 1.337 2.64-.71 5.464-1.38 8.399-1.585.22-.309.449-.603.676-.902-1.256-.924-2.795-1.852-4.4-2.814-3.723-2.232-7.785-4.669-9.953-8.101l-14.594 2.933a21.248 21.248 0 0 1-15.013 6.16z" fill="#fff"/><path d="M262.174 131.969c-1.6 1.64-1.43 4.366-1.428 4.393.009.087.012.174.011.261-.051 3.739 4.6 6.527 9.097 9.224 1.84 1.103 3.603 2.167 5.12 3.321.345-.345.681-.701 1.038-1.029a31.44 31.44 0 0 1 7.108-4.939c-2.555-1.983-4.49-3.846-5.401-5.249-4.4-6.785-10.102-7.378-10.343-7.4-2.367-.161-4.128.318-5.202 1.418z" fill="#e5cbbd"/><path d="M255.789 137.243c-.01-.19-.033-.375-.032-.57-.06-.936-.149-5.133 2.839-8.195 2.104-2.156 5.117-3.133 8.949-2.92-8.675-8.27-17.955-10.254-24.052-10.159 5.78 6.339 7.284 15.708 3.48 23.615l8.816-1.771z" fill="#fff"/><path d="M217.485 150.126a6.57 6.57 0 0 1-.235-1.769c-.312-.177-.626-.352-.931-.544a21.44 21.44 0 0 1-4.331-3.646c-1.466 4.014-3.243 10.94-2.158 19.094.84.86 2.751 2.651 5.702 4.565.307.118.583.293.817.515a41.513 41.513 0 0 0 5.441 2.81c.318.064.617.187.887.364 5.102 2.045 11.656 3.519 19.642 3.112.147-.021.295-.027.444-.021l-1.645-13.003c-6.072-.346-11.805-1.275-15.209-3.093-4.771-2.55-7.606-5.37-8.424-8.384z" fill="#b7c16f"/><path d="M234.361 191.878c1.354-4.592 2.819-8.699 4.374-12.27-5.08-.116-9.609-.918-13.557-2.092l7.138 22.46c.608-2.793 1.281-5.507 2.045-8.098z" fill="#a6d9ff"/><path d="M262.393 175.414c-.087.032-.173.061-.261.092.076.027.15.056.227.082l.034-.174z" fill="#c69c6d"/><path d="M254.503 177.816c-2.929.711-9.791 1.604-10.199 1.635-1.788 3.73-3.475 8.24-5.023 13.436.298 4.651 7.515 5.632 22.099 5.831a2.483 2.483 0 0 1-.88-1.89c0-5.842.346-11.255 1.025-16.244a72.684 72.684 0 0 1-7.022-2.768z" fill="#b7c16f"/><path d="M182.154 93.64l7.018-13.682v-3.99c-3.457 1.85-7.584 2.73-12.484 2.732h-.012c-4.899-.001-9.027-.882-12.483-2.732v3.99l7.018 13.682h10.943z" fill="#c69c6d"/><path d="M203.705 226.925h8.432v-3.901H184.68v3.901h6.44a29.528 29.528 0 0 1 6.292-.682c1.713.001 3.904.156 6.293.682zm-46.154-3.901l.864 3.901h10.268v-3.901zm22.572-115.805l4.175-8.137-1.099-.442h-12.975l-1.123.512 4.14 8.067z" fill="#999"/><path d="M153.934 276.496c1.447.64 2.922 1.119 4.467.771a5.933 5.933 0 0 0 4.476-7.083l-2.039-9.207-11.816 3.97 2.259 7.692c.014.051.749 3.016 2.653 3.857z" fill="#e0b489"/><path fill="#4d4d4d" d="M173.683 223.024h5.997v3.901h-5.997z"/><path fill="#999" d="M176.681 205.1l8.44-10.627-5.801-82.254h-5.277l-5.799 82.254z"/><path d="M175.396 255.198h6.203l5.466-8.706a2.5 2.5 0 0 1 3.446-.788c.33.207.588.483.781.793l.007-.004 5.466 8.706h22.664c-.748-7.632-8.689-23.955-22.017-23.955-13.327 0-20.722 10.758-22.016 23.954z" fill="#b79870"/><path d="M289.194 54.748c-4.102-1.093-13.268-4.213-17.703-11.093-4.435 6.88-13.601 10-17.702 11.093v4.912c0 13.938 7.941 25.278 17.702 25.278 9.762 0 17.703-11.34 17.703-25.278v-4.912zm-28.047 8.598c-.659 0-1.31-.27-1.77-.73a2.51 2.51 0 0 1 0-3.54c.93-.93 2.61-.93 3.53 0 .47.47.739 1.11.739 1.77a2.505 2.505 0 0 1-2.499 2.5zm10.441 14.852c-5.44 0-9.24-2.193-9.24-5.333a2.5 2.5 0 0 1 4.938-.557c.493.32 1.96.89 4.303.89s3.81-.57 4.303-.89a2.501 2.501 0 0 1 4.938.557c-.001 3.14-3.801 5.333-9.242 5.333zm12.209-15.592a2.475 2.475 0 0 1-3.531 0c-.47-.46-.729-1.1-.729-1.76 0-.66.26-1.3.729-1.77.931-.93 2.601-.93 3.53 0 .47.47.74 1.11.74 1.77.002.66-.269 1.3-.739 1.76z" fill="#e5cbbd"/><path d="M247.587 110.666a15.054 15.054 0 0 1-1.97-5.033l-1.986.477a26.074 26.074 0 0 0-8.47 3.647c.959.357 1.893.784 2.797 1.278 2.258-.519 5.627-.814 9.629-.369z" fill="#b7c16f"/><path d="M258.792 84.747c-6.031-5.448-10.004-14.66-10.004-25.086v-6.889h.003a2.5 2.5 0 0 1 2.029-2.456c.266-.052 18.17-3.659 18.17-15.186a2.5 2.5 0 1 1 5 0c0 11.597 17.988 15.151 18.17 15.185a2.498 2.498 0 0 1 2.03 2.456h.003v6.889c0 10.427-3.973 19.639-10.005 25.087v1.777c8.413-.44 14.373-3.149 17.723-8.085 7.714-11.369-.022-31.186-.102-31.385a2.507 2.507 0 0 1-.178-.925c0-7.688-2.316-13.811-6.884-18.197-8.778-8.429-23.022-7.953-23.156-7.946-.032.001-.061-.005-.094-.005-.036 0-.069.007-.105.005-.146-.004-14.443-.446-23.182 7.967-4.554 4.384-6.862 10.499-6.862 18.176 0 .316-.061.631-.178.925-.079.199-7.815 20.016-.102 31.385 3.35 4.936 9.31 7.645 17.723 8.085v-1.777z" fill="#e0bc4b"/><path d="M271.491 115.876c11.623 0 19.729-4.514 20.997-11.413l-11.382-2.731a2.5 2.5 0 0 1-1.917-2.431V88.144c-2.405 1.16-4.997 1.795-7.698 1.795s-5.293-.635-7.698-1.795v11.158a2.5 2.5 0 0 1-1.917 2.431l-11.382 2.731c1.269 6.898 9.374 11.412 20.997 11.412z" fill="#e5cbbd"/><path d="M204.168 115.87l5.109 3.235c.145-.249.27-.506.426-.751a21.235 21.235 0 0 1 13.029-9.332l3.985-11.441c-3.202-2.879-7.598-5.442-13.673-7.018-.157-.041-9.177-4.361-9.177-4.361l.911 17.271a2.492 2.492 0 0 1-.933 2.064 7.997 7.997 0 0 1 6.233.997 2.5 2.5 0 0 1-2.676 4.225 3.026 3.026 0 0 0-4.174.937 3.031 3.031 0 0 0 .94 4.174z" fill="#a6d9ff"/><path d="M213.928 121.03a16.24 16.24 0 0 0-2.14 12.328 16.242 16.242 0 0 0 7.205 10.23 16.292 16.292 0 0 0 8.729 2.539h.001a16.28 16.28 0 0 0 13.829-7.604c4.822-7.617 2.55-17.737-5.067-22.559a16.281 16.281 0 0 0-8.726-2.538c-5.645-.001-10.816 2.842-13.831 7.604zm18.359 5.836a2.5 2.5 0 0 1 3.449-.775c2.316 1.466 2.27 4.985-.116 8.757-.883 1.395-1.976 2.585-3.076 3.352-1.126.784-2.108 1.031-2.901 1.031a3.536 3.536 0 0 1-1.889-.532 2.5 2.5 0 0 1 1.869-4.556c.389-.256 1.091-.891 1.773-1.969.683-1.079.957-1.985 1.021-2.446a2.499 2.499 0 0 1-.13-2.862zm-5.68-7.47c.941-.93 2.61-.93 3.54 0 .471.47.74 1.11.74 1.77 0 .66-.27 1.3-.74 1.77-.46.46-1.109.73-1.77.73-.65 0-1.3-.27-1.771-.73a2.548 2.548 0 0 1-.729-1.77c0-.66.27-1.3.73-1.77zm-8.22 12.99c.93-.93 2.601-.93 3.54 0 .46.47.73 1.11.73 1.77 0 .66-.271 1.3-.73 1.77-.47.46-1.11.73-1.77.73-.66 0-1.311-.27-1.771-.73a2.504 2.504 0 0 1-.729-1.77c.001-.66.27-1.3.73-1.77z" fill="#d8b4a4"/><path d="M232.656 105.414a25.671 25.671 0 0 0-2.127-3.57l-2.298 6.598c.159.004.319.01.478.017a31.266 31.266 0 0 1 3.947-3.045z" fill="#a6d9ff"/><path d="M236.606 302.861l18.265-75.456-.688-.609a2.5 2.5 0 0 1-.787-2.39c.126-.598 3.258-14.636 17.608-17.984l7.68-2.665c-2.266.012-4.658.013-7.193.013-11.271 0-20.173 0-26.265-1.127-1.592-.294-5.086-.954-7.707-3.064a146.238 146.238 0 0 0-2.057 10.876 2.442 2.442 0 0 1-.041.283c-4.847 32.241-1.68 72.583.287 91.316.324.271.623.541.898.807z" fill="#767743"/><path d="M296.435 205.746c-2.709 0-5.237-.513-7.557-1.474a2.488 2.488 0 0 1-1.463 1.732c.217 4.784 1.581 9.002 9.02 9.002 7.447 0 8.806-4.23 9.021-9.001a2.49 2.49 0 0 1-1.465-1.733c-2.319.961-4.847 1.474-7.556 1.474zm17.818-33.544h-12.818a2.502 2.502 0 0 1-2.232-1.373l-2.768-5.479-2.769 5.479a2.5 2.5 0 0 1-2.231 1.373h-12.818a70.046 70.046 0 0 0-.022 1.532c0 8.004 1.956 16.05 6.138 21.252.165.15 4.858 5.76 11.702 5.76s11.537-5.609 11.702-5.76c4.182-5.202 6.138-13.248 6.138-21.252 0-.518-.011-1.026-.022-1.532zm-29.276 8.084a2.566 2.566 0 0 1-.729-1.77c0-.66.27-1.3.729-1.77.94-.93 2.61-.93 3.54 0 .471.47.73 1.11.73 1.77 0 .65-.26 1.3-.73 1.77-.46.46-1.109.73-1.77.73a2.55 2.55 0 0 1-1.77-.73zm16.631 14.124c-1.393.543-3.19.844-5.064.848h-.044c-4.989 0-8.345-1.911-8.353-4.761a2.5 2.5 0 0 1 2.492-2.508h.008c1.087 0 2.013.694 2.356 1.664.508.25 1.723.605 3.5.605h.03c1.793-.004 3.017-.366 3.526-.62a2.5 2.5 0 0 1 2.353-1.674h.008a2.5 2.5 0 0 1 2.5 2.492c.002.993-.423 2.827-3.312 3.954zm6.479-14.134c-.47.47-1.11.74-1.771.74a2.507 2.507 0 0 1-2.5-2.5c0-.66.261-1.31.73-1.77.93-.93 2.61-.93 3.54 0 .46.47.729 1.11.729 1.77.002.649-.268 1.3-.728 1.76z" fill="#d8b4a4"/><path d="M271.612 262.672l-.891-7.218-18.36 52.866h1.343c5.77-23.874 15.633-41.728 17.908-45.648z" fill="#767743"/><path d="M242.762 312.311a3.162 3.162 0 0 0 3.767-2.389c.021-.093.047-.185.078-.274l22.629-65.156c.027-.08.069-.149.105-.225l-.56-4.533-9.676-8.575-18.685 77.194 2.269 3.95c.024.004.049.003.073.008z" fill="#d8b4a4"/><path fill="#d6679f" d="M317.018 256.22h-41.165l.555 4.49h40.056z"/><path d="M327.349 194.329c-.353-20.084-5.016-34.377-13.872-42.508-8.072-7.412-16.965-6.758-17.033-6.758-.071 0-9.141-.574-17.148 6.848-1.778 1.648-3.378 3.561-4.815 5.707-.012.018-4.805 8.977-6.283 14.718-.019.105-1.027 4.477-1.389 6.717-.006.071-.023.142-.035.213-.73 4.595-1.156 9.607-1.252 15.064h12.746c-2.989-5.375-4.672-12.408-4.672-20.595 0-1.441.041-2.849.122-4.184l.011.001a2.492 2.492 0 0 1 2.484-2.349h13.685l4.307-8.521a2.498 2.498 0 0 1 3.359-1.104c.495.251.864.647 1.097 1.107l.007-.003 4.307 8.521h13.685a2.492 2.492 0 0 1 2.484 2.349l.011-.001c.081 1.335.122 2.743.122 4.184 0 8.187-1.683 15.22-4.672 20.595h12.744z" fill="#c69c6d"/><path fill="#8c6239" d="M347.085 138.559l3.485 4.98h4.267l3.485-4.98z"/><path d="M351.499 85.768V87.5a9.96 9.96 0 0 1-1.443 5.158v.85a2.65 2.65 0 0 0 2.646 2.647 2.65 2.65 0 0 0 2.648-2.647v-.846a9.957 9.957 0 0 1-1.445-5.161v-1.733h-2.406z" fill="#c69c6d"/><path d="M327.124 69.306c-2.451 7.919-2.199 12.462-1.301 15.045v-3.295a2.5 2.5 0 0 1 2.5-2.5h2.404c.393-8.387 2.771-15.229 6.699-19.923-4.618.8-8.421 4.59-10.302 10.673z" fill="#ccc"/><path d="M273.991 125.056c1.552 1.755 4.642 6.068 4.691 6.168a24.335 24.335 0 0 1 3.232 4.004c.679 1.047 3.069 3.28 6.745 5.831 3.858-.787 6.939-1.032 7.77-.988a19.893 19.893 0 0 1 2.602.058 27.52 27.52 0 0 1 4.238-5.287 6.912 6.912 0 0 0-1.395-1.621 2.499 2.499 0 1 1 3.211-3.833 11.865 11.865 0 0 1 2.084 2.27c2.996-2.059 6.77-3.882 11.545-5.098l1.195-.401c-1.522-4.628-6.768-16.807-20.549-20.046l-1.997-.479c-1.698 8.678-10.569 14.511-23.373 15.179v4.243z" fill="#b7c16f"/><path d="M377.081 78.557a2.5 2.5 0 0 1 2.5 2.5v3.297c.9-2.584 1.153-7.127-1.299-15.048-1.883-6.082-5.685-9.872-10.304-10.671 3.927 4.693 6.306 11.536 6.698 19.922h2.405z" fill="#ccc"/><path fill="#fff" d="M343.167 134.827l-4.999-9.517-6.673 2.238.544 12.21z"/><path d="M374.284 96.343a9.974 9.974 0 0 1-4.737 1.192h-5.605a9.953 9.953 0 0 1-4.24-.953c-1.186 2.689-3.875 4.573-6.998 4.573s-5.811-1.884-6.996-4.574a9.966 9.966 0 0 1-4.242.954h-5.605a9.974 9.974 0 0 1-4.737-1.192c1.599 11.015 10.012 18.421 21.581 18.421 11.567 0 19.98-7.407 21.579-18.421zm-30.724 8.941a2.5 2.5 0 0 1 4.438-1.58c.695.206 2.354.496 4.802.496s4.106-.29 4.802-.496a2.5 2.5 0 0 1 4.439 1.58c0 .969 0 3.917-9.24 3.917s-9.241-2.948-9.241-3.917z" fill="#c69c6d"/><path d="M335.859 92.535h5.605a5.04 5.04 0 0 0 5.035-5.035v-3.944h-15.676V87.5a5.041 5.041 0 0 0 5.036 5.035zm1.129-6.109c.939-.93 2.609-.93 3.54 0a2.499 2.499 0 0 1 0 3.53c-.471.47-1.11.74-1.771.74-.66 0-1.3-.27-1.77-.74a2.53 2.53 0 0 1-.73-1.77c0-.65.271-1.3.731-1.76z" fill="#d8d5d4"/><path d="M348.999 78.557c1.281 0 2.326.968 2.471 2.211h2.465a2.491 2.491 0 0 1 2.471-2.211h13.266c-.601-11.049-5.288-21.983-16.969-21.983-11.681 0-16.368 10.934-16.969 21.983h13.265zm-1.382-17.389h10.369a2.5 2.5 0 1 1 0 5h-10.369a2.5 2.5 0 1 1 0-5zm-4.073 8.107h18.514a2.5 2.5 0 1 1 0 5h-18.514a2.5 2.5 0 1 1 0-5z" fill="#c69c6d"/><path d="M184.193 110.24l5.984 84.851a2.496 2.496 0 0 1-.536 1.73l-10.464 13.177v8.026h32.959v-46.591c-4.263-2.833-6.492-5.328-6.559-5.404a2.492 2.492 0 0 1-.582-1.258c-1.896-12.355 2.018-22.17 3.622-25.54a21.466 21.466 0 0 1-1.707-4.777 21.21 21.21 0 0 1 .354-10.704l-5.771-3.655c-3.737-2.367-4.854-7.334-2.487-11.074a7.964 7.964 0 0 1 3.278-2.915h-.001a2.49 2.49 0 0 1-.931-.18l-12.394-4.974-4.765 9.288z" fill="#a6d9ff"/><path d="M146.121 362.506c1.752.567 3.203.043 3.396-.553a2.35 2.35 0 0 1 .089-.234l11.893-27.091-7.363-2.901-10.474 28.432c-.162.503.708 1.779 2.459 2.347z" fill="#d8b4a4"/><path fill="#fff" d="M373.368 139.758l.545-12.21-6.674-2.238-4.999 9.517z"/><path d="M358.906 87.5a5.041 5.041 0 0 0 5.035 5.035h5.605a5.04 5.04 0 0 0 5.035-5.035v-3.944h-15.676V87.5zm6.172-1.074c.93-.93 2.6-.93 3.529 0 .471.46.74 1.11.74 1.77 0 .65-.27 1.3-.74 1.76-.46.47-1.109.74-1.77.74-.65 0-1.3-.27-1.76-.74a2.488 2.488 0 0 1-.74-1.76c0-.66.27-1.31.741-1.77z" fill="#d8d5d4"/><path d="M362.171 118.212c-2.907 1.009-6.087 1.552-9.469 1.552-3.381 0-6.561-.542-9.467-1.551v5.994l4.893 9.314h9.15l4.893-9.314v-5.995z" fill="#c69c6d"/><path d="M368.466 143.055l-5.486-2.431-4.126 5.898 1.634 6.161c5.161-2.476 7.215-7.082 7.978-9.628zm-31.525 0c.764 2.546 2.817 7.153 7.979 9.628l1.634-6.161-4.126-5.898-5.487 2.431z" fill="#fff"/><path d="M351.19 148.539l-1.479 5.579a21.75 21.75 0 0 0 2.993.237 21.738 21.738 0 0 0 2.993-.237l-1.48-5.579h-3.027z" fill="#8c6239"/><path d="M212.136 294.732v-4.905c-.279.221-.562.438-.848.646v4.096l.848.163z" fill="#4d4d4d"/><path d="M219.712 260.198h-24.33c-.86 0-1.66-.442-2.117-1.171l-4.083-6.504-4.083 6.504a2.498 2.498 0 0 1-2.117 1.171h-7.869c-.008.451-.017.902-.017 1.364 0 15.761 10.011 28.583 22.316 28.583 12.306 0 22.316-12.822 22.316-28.583.001-.461-.008-.913-.016-1.364zm-34.275 8.158a2.53 2.53 0 0 1-.73-1.77c0-.66.27-1.3.73-1.77.931-.93 2.61-.93 3.54 0 .46.47.73 1.11.73 1.77 0 .66-.27 1.3-.73 1.77-.47.46-1.109.73-1.77.73-.66 0-1.31-.27-1.77-.73zm17.369 15.137c-1.451.566-3.328.88-5.286.884h-.042c-1.941 0-3.803-.305-5.246-.861-2.972-1.145-3.42-3.012-3.422-4.023a2.5 2.5 0 0 1 2.494-2.505h.004c1.108 0 2.047.718 2.376 1.714.528.276 1.891.662 3.825.675 1.974-.004 3.296-.413 3.824-.692a2.5 2.5 0 0 1 2.371-1.724h.006a2.5 2.5 0 0 1 2.5 2.495c.002 1.011-.437 2.88-3.404 4.037zm6.781-15.187c-.47.47-1.11.74-1.77.74a2.5 2.5 0 0 1-1.77-.74c-.47-.46-.73-1.1-.73-1.76 0-.66.261-1.31.73-1.77.92-.93 2.61-.93 3.54 0 .46.46.73 1.11.73 1.77 0 .65-.27 1.3-.73 1.76zm-21.05 25.009v3.181c.433 1.077 4.149 4.168 8.86 4.168h.032c4.712 0 8.428-3.092 8.86-4.168v-3.181c-2.785 1.18-5.77 1.83-8.876 1.83s-6.091-.65-8.876-1.83z" fill="#d8b4a4"/><path d="M180.705 231.925h-21.182l8.232 37.168c1.323 5.866-2.378 11.725-8.253 13.05a10.856 10.856 0 0 1-8.239-1.42 10.854 10.854 0 0 1-4.803-6.747l-5.234-17.827v96.158l8.254-22.412-3.38-1.331a2.5 2.5 0 0 1-1.252-3.571l10.472-18.235c.632-1.387 4.339-8.149 16.639-9.984l1.101-20.025c-1.891-4.565-2.964-9.723-2.964-15.186 0-1.321.044-2.577.108-3.802-.001-.021-.007-.041-.007-.062 0-.081.017-.157.023-.235.755-13.398 5.19-21.132 10.485-25.539zm2.832 62.643v-4.096a27.742 27.742 0 0 1-2.597-2.143l.366 6.668 2.231-.429z" fill="#4d4d4d"/><path d="M320.621 211.265c-.09-.02-10.275-3.55-10.275-3.55-.527 5.03-2.922 12.292-13.91 12.292-11 0-13.388-7.275-13.91-12.292 0 0-10.184 3.529-10.273 3.549-9.092 2.068-12.527 9.686-13.577 12.83l14.13 12.523a2.5 2.5 0 0 1 .823 1.565l1.608 13.036h42.399l1.608-13.036a2.503 2.503 0 0 1 .823-1.565l14.13-12.524c-1.047-3.136-4.481-10.759-13.576-12.828z" fill="#f7a9c9"/><path d="M248.724 328.564l-1.395.549a421.9 421.9 0 0 0 .513 7.564l1.63 4.426c.086-9.712 1.286-19.088 3.102-27.783h-2.075a8.194 8.194 0 0 1-5.037 3.814l4.514 7.859a2.5 2.5 0 0 1-1.252 3.571z" fill="#e5cbbd"/><path d="M288.488 423.149l-.021-78.442h-16.618c.362 29.229 7.01 69.044 8.648 78.442h7.991zm23.885 0c1.639-9.399 8.287-49.22 8.65-78.442h-16.618l-.02 78.442h7.988z" fill="#d8b4a4"/><path fill="#c69c6d" d="M322.289 255.852l-.138-.399-.05.399z"/><path d="M317.23 265.71h-41.587c-3.622 6.441-20.4 38.157-21.16 73.997h83.904c-.758-35.882-17.534-67.561-21.157-73.997z" fill="#f7a9c9"/><path d="M273.991 415.152h.104l-.104-.654v.654z" fill="#e5cbbd"/><path d="M273.991 423.861c.478-.161.97-.302 1.484-.41-.154-.892-.346-2.012-.561-3.298h-.924v3.708z" fill="#998675"/><path d="M341.499 311.165l-17.474-50.313h-2.541l-.225 1.821c3.261 5.62 22.153 39.907 22.153 79.535a2.5 2.5 0 0 1-2.5 2.5h-14.891c-.215 17.6-2.672 38.935-4.978 55.352v19.438h24.375l3.39-102.148a8.1 8.1 0 0 1-7.309-6.185z" fill="#736357"/><path fill="#333" d="M195.005 422.471h4.814v12.33h-4.814z"/><path d="M197.413 400.64a2.494 2.494 0 0 1-2.194 1.312h-.213v15.519h4.814v-15.519h-.213c-.943 0-1.77-.527-2.194-1.312z" fill="#4d4d4d"/><path fill="#d8b4a4" d="M180.388 423.703h9.617v-21.751h-11.322z"/><path d="M235.671 310.122c-.019-.03-.036-.061-.053-.092 0 0-3.24-7.042-14.215-8.428a2.914 2.914 0 0 1-.159-.025l-7.105-1.368a.325.325 0 0 1-.014-.003l-3.853-.742c-2.133 3.189-7.364 6.2-12.847 6.2h-.03c-5.484 0-10.719-3.013-12.85-6.199 0 0-11.074 2.129-11.127 2.137-10.743 1.587-13.445 6.976-13.545 7.213-.04.094-9.25 16.157-9.25 16.157l15.551 6.125 4.16-7.829a2.5 2.5 0 0 1 4.708 1.173v38.306h44.734v-38.306a2.5 2.5 0 0 1 4.707-1.173l4.16 7.829 15.551-6.125-8.523-14.85z" fill="#f4a04d"/><path d="M172.658 430.652c-1.185 1.214-1.768 2.825-2.053 4.148h19.4v-6.098h-11.929c-2.366.001-4.138.639-5.418 1.95z" fill="#999"/><path d="M76.256 421.04h10.905v-75.013H66.698c1.535 19.009 4.399 46.498 9.558 75.013z" fill="#e0b489"/><path d="M175.045 396.952h17.909l1.971-19.822a2.506 2.506 0 0 1 2.734-2.241 2.499 2.499 0 0 1 2.239 2.241h.001l1.971 19.822h17.909v-29.204h-44.734v29.204z" fill="#5576a5"/><path d="M251.132 360.066l-10.44-28.338-7.364 2.901 11.893 27.091c.033.077.063.155.089.234.193.595 1.643 1.121 3.396.552 1.75-.568 2.619-1.844 2.426-2.44zm-46.312 41.886v21.751h9.617l1.705-21.751z" fill="#d8b4a4"/><path d="M92.162 421.04h10.903c5.159-28.515 8.023-56.004 9.559-75.013H92.162v75.013z" fill="#e0b489"/><path d="M118.956 188.289c2.61-6.179 5.311-12.568.417-23.319a2.5 2.5 0 0 1 .475-2.77l12.907-13.403c-3.981-5.218-9.086-8.61-15.226-10.054l-8.455-2.029-16.914 48.874v59.79h38.046c-.141-5.83-1.542-21.814-11.831-39.398-4.002-6.842-1.672-12.357.581-17.691z" fill="#c4806e"/><path d="M56.864 341.027h65.594c9.631-57.937 8.617-83.637 8.003-90.649H48.867c-.606 7.053-1.6 32.917 7.997 90.649z" fill="#96564a"/><path d="M166.421 336.567l-.268-.105-11.928 27.169c-.909 2.583-3.539 4.125-6.604 4.125a9.893 9.893 0 0 1-3.044-.493 9.671 9.671 0 0 1-3.352-1.865v52.073h24.098l4.544-82.665-.323.609a2.498 2.498 0 0 1-3.123 1.152z" fill="#4d4d4d"/><path d="M92.162 426.04v8.761h22.759c-2.233-8.073-8.923-8.711-9.847-8.761H92.162z" fill="#998675"/><path d="M136.334 425.467c-2.564 2.717-3.339 6.783-3.565 9.333h32.422v-12.33h-21c-3.383.001-5.953.981-7.857 2.997z" fill="#333"/><path d="M141.181 238.248l6.431 21.899 12.138-4.079-21.156-95.514c-.006-.026-.803-3.377-3.033-7.461l-10.957 11.377c3.592 8.794 2.726 15.292.967 20.607l15.456 52.64c.07.168.121.346.154.531z" fill="#c4806e"/><path d="M122.692 203.455c.255.436.495.869.74 1.303l1.131-5.363-1.987-6.768c-1.495 3.799-2.162 6.934.116 10.828z" fill="#a6d9ff"/><path d="M204.82 428.703v6.098h19.4c-.285-1.323-.867-2.934-2.053-4.148-1.28-1.312-3.053-1.949-5.419-1.949H204.82z" fill="#999"/><path d="M250.261 434.801h13.682c.872-2.532 2.504-5.579 5.048-7.928v-6.721h-10.915c-.741 3.216-2.732 9.341-7.815 14.649z" fill="#998675"/><path d="M384.363 260.852h-38.266l4.348 17.965c.023-.047-.018-1.277 2.385-1.277 2.409 0 2.359 2.225 2.361 2.273l.9 22.331 1.275 5.27a8.122 8.122 0 0 1-.902 5.908l3.523 106.175h24.375V260.852z" fill="#736357"/><path d="M381.904 424.497H363.07v10.304h28.948c-.229-2.181-.939-5.417-3.059-7.655-1.69-1.783-3.998-2.649-7.055-2.649z" fill="#4d4d4d"/><path d="M420.398 271.817a5.883 5.883 0 0 0 2.937-2.027 5.547 5.547 0 0 0 1.103-2.72 7.313 7.313 0 0 0-4.04 4.747zm3.4-10.965h-12.517l1.345 6.06c.016.069.718 3.494 2.767 4.317.916-4.449 4.246-8.02 8.553-9.297l-.148-1.08z" fill="#c69c6d"/><path d="M193.896 81.703l-6.739 13.138 12.424 4.986-.849-16.095-4.742-2.281c-.033.084-.053.172-.094.252z" fill="#a6d9ff"/><path fill="#588aa3" d="M409.506 255.852h14.368l.65-4.296h-17.868zm-4.515-105.53c-.059-.574-1.654-14.407-19.614-18.938-.062-.015-6.533-2.183-6.533-2.183l-.644 14.437a2.499 2.499 0 0 1-3.51 2.175l-1.593-.706c-1.598 4.872-5.64 10.956-13.579 13.285-.032.01-.06.026-.093.035-.018.005-.036.003-.054.007-.923.264-3.796.995-6.669.995-2.873 0-5.744-.731-6.667-.995-.017-.004-.036-.002-.054-.007-.033-.009-.061-.025-.093-.035-7.939-2.329-11.982-8.412-13.579-13.285l-1.593.706a2.492 2.492 0 0 1-2.329-.161 2.499 2.499 0 0 1-1.181-2.014l-.643-14.437s-6.472 2.167-6.533 2.183c-8.183 2.065-12.914 6.104-15.627 9.727 3.679 1.041 8.15 3.076 12.454 7.028 10.294 9.451 15.513 25.833 15.513 48.691a2.5 2.5 0 0 1-2.5 2.5h-11.177a429.8 429.8 0 0 0-.347 5.871l3.521 1.222c14.351 3.349 17.48 17.387 17.606 17.985a2.501 2.501 0 0 1-.787 2.389l-.685.607 6.886 28.448h40.353c5.603-33.089-.786-80.379-.854-80.875a2.5 2.5 0 0 1 4.927-.839l14.726 72.418h20.338c-.001 0-19.378-96.144-19.386-96.234z"/><path d="M293.491 434.801h1.151c-.395-.385-.771-.794-1.151-1.201v1.201z" fill="#998675"/><path d="M293.467 344.707l.003 10.653c.369-3.586.704-7.135 1.011-10.653h-1.014z" fill="#e5cbbd"/><path d="M333.766 231.157l-9.677 8.577-.559 4.53c.035.076 22.734 65.384 22.734 65.384.031.09.754 1.798 1.466 2.249a3.135 3.135 0 0 0 2.377.415 3.133 3.133 0 0 0 1.975-1.387 3.132 3.132 0 0 0 .415-2.377l-18.731-77.391z" fill="#d8b4a4"/><path d="M251.956 344.707c-.475 0-.914-.14-1.292-.37l5.191 14.094c1.114 3.435-1.096 7.082-5.036 8.62a801.574 801.574 0 0 0 7.266 48.102h10.905v-38.006c-1.153-10.954-2.018-22.314-2.142-32.439h-14.892z" fill="#e5cbbd"/><path d="M278.408 428.149c-5.049.011-7.751 3.805-9.067 6.644l19.15-.041-.002-6.603h-10.081z" fill="#d6679f"/><path d="M320.918 424.75c4.294 2.302 6.836 6.645 8.009 10.05h13.41v-10.304h-18.834c-.932.001-1.787.091-2.585.254z" fill="#4d4d4d"/><path d="M314.462 428.149h-10.079l-.002 6.603 19.148.041c-1.314-2.837-4.016-6.632-9.067-6.644z" fill="#d6679f"/><path d="M87.161 185.588l-16.916-48.874-8.444 2.026c-7.184 1.689-12.045 5.806-15.273 10.016L59.471 162.2c.711.738.899 1.836.475 2.77-4.894 10.751-2.193 17.141.417 23.319 2.254 5.333 4.584 10.849.581 17.691-10.324 17.645-11.706 33.581-11.837 39.398h38.054v-59.79z" fill="#c4806e"/><path d="M160.192 50.184h5.277c2.532 0 4.593-1.828 4.593-4.076v-3.124h-14.464v3.124c0 2.247 2.061 4.076 4.594 4.076zm.966-5.218c.93-.94 2.609-.93 3.54 0 .46.46.729 1.11.729 1.76 0 .66-.27 1.3-.729 1.77a2.508 2.508 0 0 1-3.541 0 2.53 2.53 0 0 1-.73-1.77c0-.66.271-1.3.731-1.76z" fill="#d8d5d4"/><path d="M82.919 78.203c-2.543 4.09-6.804 6.824-9.902 8.393h12.814a2.496 2.496 0 0 1 2.492 2.428h2.672a2.496 2.496 0 0 1 2.493-2.428h2.735c-7.085-1.973-11.077-5.299-13.304-8.393z" fill="#e0b489"/><path d="M89.662 56.18c3.746 0 7.263.772 10.383 2.158.351-1.084.553-2.215.553-3.367 0-6.03-4.905-10.937-10.936-10.937S78.724 48.94 78.724 54.971c0 1.151.202 2.284.553 3.368 3.121-1.387 6.638-2.159 10.385-2.159z" fill="#ccc"/><path d="M64.401 434.801h22.761v-8.761H74.245c-.936.051-7.613.696-9.844 8.761z" fill="#998675"/><path d="M80.08 70.796a2.5 2.5 0 0 1 2.456-2.5c1.344-.048 2.495 1.049 2.542 2.411.03.469 1 11.814 23.311 12.604l-.008-4.985c0-9.615-8.223-17.147-18.719-17.147s-18.719 7.532-18.719 17.147l-.01 3.714c3.684-1.894 9.147-5.645 9.147-11.244z" fill="#ccc"/><path d="M95.989 94.519a3.846 3.846 0 0 0 3.842 3.841h4.717a3.845 3.845 0 0 0 3.841-3.841v-2.923h-12.4v2.923zm4.528-1.163c.92-.93 2.61-.93 3.54 0 .46.46.731 1.11.731 1.77a2.508 2.508 0 0 1-2.5 2.5 2.506 2.506 0 0 1-2.5-2.5c0-.66.269-1.31.729-1.77z" fill="#d8d5d4"/><path d="M135.352 144.048l.791-3.999-13.316-38.23c-3.737 5.219-4.286 10.123-4.321 10.49-.008.08-4.02 20.561-4.02 20.561l4.199 1.007c6.496 1.529 12.187 5.017 16.667 10.171zm5.875-4.181v13.367c1.607 3.49 2.209 6.068 2.245 6.227l12.972 58.563h17.733v-8.038l-10.454-13.166a2.499 2.499 0 0 1-.536-1.73l5.983-84.851-4.624-9.012-12.488 5.688a2.49 2.49 0 0 1-2.441-.208 2.5 2.5 0 0 1-1.092-2.194l.926-18.29s-8.975 4.3-9.132 4.34c-6.104 1.583-10.501 4.166-13.677 7.008l14.446 41.473c.017.05.139.768.139.823z" fill="#a6d9ff"/><path d="M159.467 81.703c-.041-.08-.062-.168-.093-.252l-4.791 2.305-.857 16.905 12.535-5.71-6.794-13.248z" fill="#a6d9ff"/><path d="M176.681 73.7c9.557-.001 16.733-3.402 20.383-19.305a9.984 9.984 0 0 1-3.893.788h-5.277c-5.289 0-9.593-4.071-9.593-9.076v-3.124h-3.239v3.124c0 5.004-4.304 9.076-9.593 9.076h-5.277a9.991 9.991 0 0 1-3.893-.788c3.65 15.903 10.825 19.304 20.382 19.305zm-6.379-12.739c1.175 0 2.161.811 2.429 1.903.486.299 1.872.819 4.049.819 2.176 0 3.562-.52 4.049-.82a2.5 2.5 0 0 1 4.929.597c0 3.075-3.691 5.223-8.977 5.223-5.286 0-8.978-2.147-8.978-5.223a2.499 2.499 0 0 1 2.499-2.499z" fill="#c69c6d"/><path d="M18.073 262.833c3.912 2.059 6.589 6.16 6.589 10.879a2.5 2.5 0 1 1-5 0 7.282 7.282 0 0 0-2.738-5.687l-.476 2.149a5.89 5.89 0 0 0 .768 4.478 5.889 5.889 0 0 0 3.704 2.615c1.54.349 2.981-.225 4.467-.771 1.896-.696 2.638-3.795 2.65-3.841l2.212-7.725-11.764-3.954-.412 1.857zM98.325 152.49l5.865-16.948-4.915-1.179a2.5 2.5 0 0 1-1.917-2.431v-9.419a19.766 19.766 0 0 1-7.696 1.575c-2.695 0-5.283-.56-7.7-1.577v9.42a2.5 2.5 0 0 1-1.917 2.431l-4.914 1.179 5.865 16.948h17.329z" fill="#e0b489"/><path fill="#96564a" d="M96.594 157.49H82.726l6.935 20.035z"/><path d="M193.623 22.716a1.306 1.306 0 0 0-.171-.139c-.347.089-1.115.504-1.743.844-2.599 1.405-6.947 3.755-15.022 3.757h-.012c-8.073-.002-12.422-2.353-15.02-3.757-.627-.338-1.393-.752-1.741-.843-.051.037-.13.102-.237.209-.838 1.208-1.574 8.189-1.062 15.197h36.135c.511-7.007-.23-13.994-1.127-15.268z" fill="#c69c6d"/><path d="M43.734 153.064c-2.149 3.945-2.938 7.198-3.009 7.506l-21.153 95.498 12.054 4.051 21.791-76.1c-1.521-5.116-2.057-11.33 1.3-19.548l-10.983-11.407z" fill="#c4806e"/><path d="M74.774 98.36h4.718a3.845 3.845 0 0 0 3.84-3.841v-2.923H70.933v2.923a3.845 3.845 0 0 0 3.841 3.841zm.683-5.004c.93-.93 2.609-.93 3.54 0 .47.46.729 1.11.729 1.77 0 .66-.26 1.3-.729 1.77-.47.46-1.11.73-1.771.73-.66 0-1.3-.27-1.77-.74-.46-.46-.73-1.11-.73-1.76a2.54 2.54 0 0 1 .731-1.77z" fill="#d8d5d4"/><path d="M156.141 19.252c2.918-2.916 5.675-1.427 7.891-.229 2.464 1.331 5.838 3.155 12.65 3.156 6.813-.001 10.188-1.825 12.65-3.156 2.217-1.197 4.971-2.691 7.891.229 2.723 2.723 2.916 12.556 2.53 18.732h.513a2.5 2.5 0 0 1 2.5 2.5v4.714c1.673-3.541 2.996-10.499.83-24.028-1.331-8.315-2.589-16.169-26.914-16.17-24.324.001-25.581 7.855-26.912 16.17-2.166 13.529-.844 20.487.829 24.027v-4.713a2.5 2.5 0 0 1 2.5-2.5h.513c-.386-6.176-.193-16.01 2.529-18.732z" fill="#754c24"/><path d="M89.662 119.088c8.193 0 15.17-6.783 17.703-16.196a8.787 8.787 0 0 1-2.817.468h-4.717c-4.875 0-8.842-3.966-8.842-8.841v-.495h-2.657v.495c0 4.875-3.966 8.841-8.84 8.841h-4.718a8.81 8.81 0 0 1-2.817-.468c2.534 9.413 9.51 16.196 17.705 16.196zm-6.644-14.675c1.189 0 2.184.831 2.438 1.943.493.32 1.96.89 4.303.89s3.81-.57 4.303-.89a2.501 2.501 0 0 1 4.938.557c0 3.14-3.8 5.333-9.24 5.333s-9.24-2.193-9.24-5.333a2.497 2.497 0 0 1 2.498-2.5z" fill="#e0b489"/><path d="M183.301 46.108c0 2.248 2.061 4.076 4.593 4.076h5.277c2.533 0 4.594-1.828 4.594-4.076v-3.124h-14.464v3.124zm5.567-1.152c.93-.93 2.6-.92 3.529 0 .471.47.73 1.12.73 1.77 0 .66-.26 1.31-.73 1.77-.47.47-1.109.73-1.77.73-.65 0-1.3-.26-1.76-.73a2.494 2.494 0 0 1-.74-1.77c0-.66.27-1.3.741-1.77z" fill="#d8d5d4"/><path d="M278.329 70.365a2.502 2.502 0 0 0-2.438 1.943c-.493.32-1.96.89-4.303.89s-3.81-.57-4.303-.89a2.501 2.501 0 0 0-4.938.557c0 3.14 3.8 5.333 9.24 5.333s9.24-2.193 9.24-5.333a2.497 2.497 0 0 0-2.498-2.5zm-14.682-9.519c0-.66-.27-1.3-.739-1.77-.92-.93-2.601-.93-3.53 0a2.51 2.51 0 0 0 0 3.54c.46.46 1.11.73 1.77.73a2.51 2.51 0 0 0 2.499-2.5zm16.62-1.77a2.504 2.504 0 0 0 1.771 4.27c.66 0 1.3-.27 1.76-.74.47-.46.74-1.1.74-1.76 0-.66-.271-1.3-.74-1.77-.93-.93-2.6-.93-3.531 0zm-50.645 75.067a2.501 2.501 0 0 0-1.869 4.556c.34.216.993.532 1.889.532.793 0 1.775-.248 2.901-1.031 1.101-.767 2.193-1.957 3.076-3.352 2.387-3.771 2.433-7.291.116-8.757a2.5 2.5 0 0 0-3.319 3.636c-.064.461-.339 1.368-1.021 2.446-.683 1.079-1.385 1.714-1.773 1.97zm-1.245-10.478a2.511 2.511 0 0 0 2.51-2.5c0-.66-.27-1.3-.74-1.77-.93-.93-2.6-.93-3.54 0-.46.47-.729 1.11-.729 1.77 0 .66.27 1.3.729 1.77.471.461 1.12.73 1.77.73zm-8.219 12.991c.659 0 1.3-.27 1.77-.73.46-.47.73-1.11.73-1.77 0-.66-.271-1.3-.73-1.77-.939-.93-2.61-.93-3.54 0-.46.47-.729 1.11-.729 1.77 0 .66.26 1.3.729 1.77.459.46 1.11.73 1.77.73zM203.71 276.961h-.006a2.5 2.5 0 0 0-2.371 1.724c-.528.279-1.851.688-3.824.692-1.935-.014-3.297-.399-3.825-.675a2.501 2.501 0 0 0-2.376-1.714h-.004a2.5 2.5 0 0 0-2.494 2.505c.002 1.011.45 2.878 3.422 4.023 1.443.556 3.305.861 5.246.861h.042c1.958-.004 3.835-.318 5.286-.884 2.967-1.157 3.406-3.026 3.404-4.037a2.5 2.5 0 0 0-2.5-2.495zm-14.003-10.375c0-.66-.27-1.3-.73-1.77-.93-.93-2.609-.93-3.54 0-.46.47-.73 1.11-.73 1.77 0 .66.27 1.31.73 1.77.46.46 1.11.73 1.77.73.66 0 1.3-.27 1.77-.73.46-.47.73-1.11.73-1.77zm16.34-1.81c-.47.46-.73 1.11-.73 1.77 0 .66.261 1.3.73 1.76.46.47 1.11.74 1.77.74a2.513 2.513 0 0 0 2.5-2.5c0-.66-.27-1.31-.73-1.77-.929-.93-2.62-.93-3.54 0zm96.372-76.812h-.008a2.5 2.5 0 0 0-2.353 1.674c-.51.253-1.733.616-3.526.62h-.03c-1.777 0-2.992-.355-3.5-.605a2.501 2.501 0 0 0-2.356-1.664h-.008a2.5 2.5 0 0 0-2.492 2.508c.009 2.851 3.364 4.761 8.353 4.761h.044c1.874-.004 3.672-.305 5.064-.848 2.889-1.127 3.315-2.961 3.312-3.954a2.5 2.5 0 0 0-2.5-2.492zm-13.171-9.448c0-.66-.26-1.3-.73-1.77-.93-.93-2.6-.93-3.54 0-.46.47-.729 1.11-.729 1.77 0 .65.27 1.3.729 1.77.471.46 1.11.73 1.771.73.66 0 1.31-.27 1.77-.73.469-.47.729-1.121.729-1.77zm15.299-1.77c-.47.46-.73 1.11-.73 1.77a2.511 2.511 0 0 0 2.5 2.5c.66 0 1.301-.27 1.771-.74.46-.46.729-1.11.729-1.76 0-.66-.27-1.3-.729-1.77-.93-.93-2.611-.93-3.541 0zm-214.789-64.5c5.44 0 9.24-2.193 9.24-5.333a2.5 2.5 0 0 0-4.938-.557c-.493.32-1.96.89-4.303.89s-3.81-.57-4.303-.89a2.501 2.501 0 0 0-4.938.557c.002 3.14 3.802 5.333 9.242 5.333zm-12.531-14.62c.66 0 1.301-.27 1.771-.73.47-.47.729-1.11.729-1.77 0-.66-.26-1.31-.729-1.77-.931-.93-2.61-.93-3.54 0a2.53 2.53 0 0 0-.73 1.77 2.511 2.511 0 0 0 2.499 2.5zm25.061 0a2.511 2.511 0 0 0 2.5-2.5c0-.66-.271-1.31-.731-1.77-.93-.93-2.62-.93-3.54 0a2.53 2.53 0 0 0-.729 1.77 2.506 2.506 0 0 0 2.5 2.5zm259.752 7.658a2.5 2.5 0 0 0-4.439-1.58c-.695.206-2.354.496-4.802.496s-4.107-.29-4.802-.496a2.5 2.5 0 0 0-4.438 1.58c0 .969 0 3.917 9.24 3.917s9.241-2.948 9.241-3.917zm-18.496-31.009h18.514a2.5 2.5 0 1 0 0-5h-18.514a2.5 2.5 0 1 0 0 5zm4.073-8.107h10.369a2.5 2.5 0 1 0 0-5h-10.369a2.5 2.5 0 1 0 0 5zm-8.86 24.528a2.504 2.504 0 0 0 1.771-4.27c-.931-.93-2.601-.93-3.54 0-.46.46-.73 1.11-.73 1.76a2.511 2.511 0 0 0 2.499 2.51zm28.08 0c.66 0 1.31-.27 1.77-.74.471-.46.74-1.11.74-1.76 0-.66-.27-1.31-.74-1.77-.93-.93-2.6-.93-3.529 0-.471.46-.74 1.11-.74 1.77 0 .65.27 1.3.74 1.76.46.47 1.109.74 1.759.74z" fill="#1c1b1a"/><path d="M428.935 261.521l-.408-3.009 1.376-9.083c.013-.084-19.949-99.715-19.949-99.715-.218-1.874-2.672-17.914-23.261-23.155l-19.522-6.545v-4.16c7.627-4.652 12.41-13.098 12.41-23.381v-.557c1.119-.614 2.492-1.684 3.615-3.533 2.735-4.506 2.689-11.421-.138-20.556-3.224-10.417-11.669-15.983-20.769-13.895-2.814-1.535-6.031-2.359-9.588-2.359-3.557 0-6.773.824-9.588 2.358-9.094-2.088-17.543 3.479-20.767 13.895-2.827 9.134-2.873 16.05-.138 20.556 1.122 1.85 2.496 2.919 3.614 3.533v.557c0 10.284 4.784 18.731 12.412 23.383v4.159l-13.588 4.556c-1.842-5.546-8.002-19.531-24.132-23.323l-16.327-3.918v-5.797c10.202-.479 17.556-3.933 21.868-10.298 8.576-12.658 1.817-32.253.572-35.575-.096-8.885-2.927-16.061-8.418-21.333-9.974-9.576-25.157-9.381-26.714-9.339-1.459-.045-16.716-.274-26.728 9.339-5.491 5.273-8.322 12.448-8.418 21.333-1.245 3.322-8.004 22.917.572 35.575 4.312 6.366 11.666 9.82 21.868 10.298v5.797l-16.316 3.915a31.642 31.642 0 0 0-5.415 1.81 31.183 31.183 0 0 0-5.414-7.608 2.486 2.486 0 0 0-.52-.535c-3.698-3.659-8.999-7.114-16.586-9.125l-20.369-9.797v-3.863c3.953-4.189 6.632-10.479 8.308-19.171 3.379-1.86 9.891-8.606 6.054-32.577C206.813 9.642 203.083.002 176.687 0h-.011c-26.398.002-30.126 9.642-31.845 20.38-3.837 23.97 2.674 30.715 6.053 32.576 1.676 8.692 4.355 14.982 8.308 19.171v3.863l-20.368 9.797c-22.469 5.951-25.065 23.953-25.283 25.923l-3.92 19.993-7.263-1.743v-10.394c6.623-5.151 11.03-14.198 11.03-24.485 0 0-.009-16.824-.011-16.859-.034-7.108-3.483-13.322-8.928-17.325a15.952 15.952 0 0 0 1.147-5.927c0-8.788-7.148-15.937-15.936-15.937S73.722 46.182 73.722 54.97c0 2.04.396 4.051 1.149 5.928-5.438 3.999-8.884 10.202-8.926 17.298-.003.044-.014 16.885-.014 16.885 0 10.286 4.406 19.331 11.028 24.483v10.396l-16.316 3.915c-19.84 4.664-24.602 24.733-24.798 25.597l-22.59 101.993c-.294-.021-.587-.045-.886-.045-6.778 0-12.293 5.514-12.293 12.293v163.588a2.5 2.5 0 1 0 5 0V273.712c0-3.949 3.157-7.167 7.079-7.282l-.588 2.652a10.846 10.846 0 0 0 1.419 8.239 10.856 10.856 0 0 0 6.83 4.822 10.847 10.847 0 0 0 8.239-1.42 10.857 10.857 0 0 0 4.805-6.756l23.537-82.199c1.726 4.195 2.677 7.504.229 11.686-13.005 22.23-12.628 41.643-12.509 44.294-.446 3.04-3.353 27.819 8.164 96.193a2.499 2.499 0 0 0 2.465 2.085h6.935c1.528 19.04 4.395 46.705 9.574 75.459-4.783 1.261-11.138 5.441-12.363 15.513a2.5 2.5 0 0 0 2.481 2.802h56.572a2.501 2.501 0 0 0 2.481-2.802c-1.226-10.071-7.58-14.251-12.363-15.513 5.18-28.754 8.046-56.419 9.574-75.459h6.935a2.499 2.499 0 0 0 2.465-2.085c11.521-68.409 8.606-93.179 8.162-96.198.104-2.33.393-17.378-8.149-35.923l.484-2.298 8.69 29.597v180.205a13.91 13.91 0 0 0-3.528 2.711c-5.49 5.816-5.026 15.021-5.004 15.41a2.5 2.5 0 0 0 2.496 2.356h96.802a2.5 2.5 0 0 0 2.499-2.417c.008-.251.16-6.186-3.711-10.188a10.852 10.852 0 0 0-2.943-2.165c-.878-1.534-1.936-2.858-3.18-3.941l1.5-19.138h1.122a2.5 2.5 0 0 0 2.5-2.5v-64.979l.5.942a2.5 2.5 0 0 0 3.124 1.153l.268-.105 11.928 27.169c.771 2.194 2.789 3.625 5.256 4.01 1.962 16.403 4.518 33.226 7.613 50.056-.319 1.921-2.382 11.839-11.57 17.473a2.5 2.5 0 0 0 1.306 4.632h101.633a2.5 2.5 0 0 0 2.5-2.5v-12.804h.5a2.5 2.5 0 0 0 2.499-2.417l2.367-71.313 2.367 71.313a2.5 2.5 0 0 0 2.499 2.417h.5v12.804a2.5 2.5 0 0 0 2.5 2.5h34.043a2.5 2.5 0 0 0 2.496-2.352c.02-.343.442-8.476-4.495-13.715a12.839 12.839 0 0 0-3.251-2.5v-160.27c.145-.693.283-1.393.417-2.099l.004-.02c2.577-13.653 3.056-29.679 2.686-44.092 0 0 7.368 35.572 7.443 35.686l5.913 8.909 1.897 8.55c.771 5.327 5.459 9.21 10.827 9.21.465 0 .935-.029 1.409-.089 2.944-.373 5.55-1.856 7.337-4.178a10.5 10.5 0 0 0 2.189-6.121c3.023.89 5.239 3.686 5.239 6.993v163.588a2.5 2.5 0 1 0 5 0V273.712c.003-6.268-4.716-11.445-10.786-12.191zM367.239 125.31l6.674 2.238-.545 12.21-11.128-4.931 4.999-9.517zm-12.402 18.229h-4.268l-3.484-4.98h11.236l-3.484 4.98zm.86 10.579a21.75 21.75 0 0 1-2.993.237 21.75 21.75 0 0 1-2.993-.237l1.479-5.579h3.027l1.48 5.579zm1.582-20.598h-9.15l-4.893-9.314v-5.994c2.906 1.009 6.086 1.551 9.467 1.551 3.382 0 6.562-.542 9.469-1.552v5.994l-4.893 9.315zm-10.726 13.001l-1.634 6.161c-5.161-2.475-7.215-7.082-7.979-9.628l5.486-2.431 4.127 5.898zm16.427-5.898l5.486 2.431c-.764 2.546-2.817 7.153-7.979 9.628l-1.634-6.161 4.127-5.898zm11.601-55.632V87.5a5.041 5.041 0 0 1-5.035 5.035h-5.605a5.04 5.04 0 0 1-5.035-5.035v-3.944h15.676v1.435zm3.702-15.685c2.452 7.921 2.198 12.464 1.299 15.048v-3.297a2.5 2.5 0 0 0-2.5-2.5h-2.404c-.392-8.387-2.771-15.229-6.698-19.922 4.618.799 8.42 4.589 10.303 10.671zm-25.58-12.732c11.681 0 16.368 10.934 16.969 21.983h-13.266a2.492 2.492 0 0 0-2.471 2.211h-2.465a2.491 2.491 0 0 0-2.471-2.211h-13.266c.602-11.05 5.289-21.983 16.97-21.983zm2.648 36.088v.846a2.65 2.65 0 0 1-2.648 2.647 2.65 2.65 0 0 1-2.646-2.647v-.85A9.956 9.956 0 0 0 351.5 87.5v-1.733h2.406V87.5c0 1.889.534 3.651 1.445 5.162zm-27.027-14.105a2.5 2.5 0 0 0-2.5 2.5v3.295c-.898-2.583-1.15-7.126 1.301-15.045 1.881-6.083 5.684-9.873 10.303-10.672-3.928 4.693-6.307 11.536-6.699 19.923h-2.405zm2.5 6.434v-1.435H346.5V87.5a5.041 5.041 0 0 1-5.035 5.035h-5.605a5.04 5.04 0 0 1-5.035-5.035v-2.509zm.298 11.352a9.974 9.974 0 0 0 4.737 1.192h5.605a9.948 9.948 0 0 0 4.242-.954c1.186 2.689 3.873 4.574 6.996 4.574s5.812-1.884 6.998-4.573a9.957 9.957 0 0 0 4.24.953h5.605a9.974 9.974 0 0 0 4.737-1.192c-1.599 11.015-10.012 18.421-21.581 18.421-11.568 0-19.981-7.407-21.579-18.421zm7.046 28.967l4.999 9.517-11.128 4.931-.545-12.21 6.674-2.238zm-40.804-19.677l1.997.479c13.781 3.24 19.026 15.419 20.549 20.046l-1.195.401c-4.775 1.216-8.549 3.039-11.545 5.098a11.865 11.865 0 0 0-2.084-2.27 2.5 2.5 0 0 0-3.211 3.833 6.96 6.96 0 0 1 1.395 1.621 27.52 27.52 0 0 0-4.238 5.287 19.892 19.892 0 0 0-2.602-.058c-.83-.043-3.911.202-7.77.988-3.676-2.55-6.066-4.784-6.745-5.831a24.335 24.335 0 0 0-3.232-4.004c-.05-.1-3.14-4.413-4.691-6.168v-4.244c12.802-.667 21.673-6.5 23.372-15.178zm22.702 130.986a2.5 2.5 0 0 0-.823 1.565l-1.608 13.036h-42.399l-1.608-13.036a2.503 2.503 0 0 0-.823-1.565l-14.13-12.523c1.05-3.144 4.485-10.762 13.577-12.83.09-.02 10.273-3.549 10.273-3.549.522 5.017 2.91 12.292 13.91 12.292 10.988 0 13.383-7.262 13.91-12.292 0 0 10.186 3.53 10.275 3.55 9.096 2.069 12.529 9.692 13.575 12.83l-14.129 12.522zm2.223 19.233h-.188l.05-.399.138.399zm-67.806 83.855c.76-35.84 17.538-67.556 21.16-73.997h41.587c3.623 6.436 20.399 38.115 21.157 73.997h-83.904zm66.54 5c-.363 29.222-7.012 69.043-8.65 78.442h-7.988l.02-78.442h16.618zm-46.109 75.445c.215 1.287.406 2.406.561 3.298-.515.108-1.007.25-1.484.41v-3.708h.923zm-.923-5v-.654l.104.654h-.104zm-2.142-70.445h16.618l.021 78.442h-7.99c-1.639-9.398-8.287-49.213-8.649-78.442zm-21.873-19.714l-4.514-7.859a8.192 8.192 0 0 0 5.037-3.814h2.075c-1.816 8.695-3.017 18.07-3.102 27.783l-1.63-4.426a430.806 430.806 0 0 1-.513-7.564l1.395-.549a2.5 2.5 0 0 0 1.252-3.571zm-19.621-26.185c-2.218-.948-4.927-1.73-8.243-2.156l-4.976-.958v-10.861c0-.022-.006-.043-.007-.065 4.702-6.035 7.6-14.21 7.6-23.207 0-1.321-.044-2.577-.108-3.802.001-.021.007-.041.007-.062 0-.081-.017-.157-.023-.235-.605-10.749-3.577-17.855-7.468-22.514V174.33c.672.338 1.369.67 2.099.994l11.181 35.179c-4.519 30.743-2.023 68.214-.062 88.305zm-32.942-8.663c-12.306 0-22.316-12.822-22.316-28.583 0-.461.009-.913.017-1.364h7.869c.86 0 1.66-.442 2.117-1.171l4.083-6.504 4.083 6.504a2.498 2.498 0 0 0 2.117 1.171h24.33c.008.451.017.902.017 1.364-.001 15.761-10.012 28.583-22.317 28.583zm14.723-.318v4.905l-.848-.163v-4.096c.287-.209.569-.425.848-.646zm-5.847 3.488v3.181c-.433 1.076-4.148 4.168-8.86 4.168h-.032c-4.711 0-8.428-3.092-8.86-4.168v-3.181c2.785 1.18 5.77 1.83 8.876 1.83s6.09-.65 8.876-1.83zm-22.752-2.842v4.096l-2.23.429-.366-6.668a27.63 27.63 0 0 0 2.596 2.143zm-13.332-32.713a72.254 72.254 0 0 0-.108 3.802c0 5.463 1.073 10.622 2.964 15.186l-1.101 20.025c-12.3 1.835-16.007 8.597-16.639 9.984l-10.472 18.235a2.5 2.5 0 0 0 1.252 3.571l3.38 1.331-8.254 22.412v-96.158l5.234 17.827a10.844 10.844 0 0 0 4.803 6.747 10.847 10.847 0 0 0 8.239 1.42c5.875-1.326 9.576-7.185 8.253-13.05l-8.232-37.168h21.182c-5.295 4.406-9.729 12.141-10.483 25.538-.007.079-.023.155-.023.235-.002.022.004.042.005.063zm-16.071 73.967l7.363 2.901-11.893 27.091a2.553 2.553 0 0 0-.089.234c-.192.596-1.644 1.12-3.396.553-1.751-.568-2.62-1.845-2.46-2.347l10.475-28.432zm-5.113-66.78l11.816-3.97 2.039 9.207a5.932 5.932 0 0 1-4.476 7.083c-1.545.349-3.02-.131-4.467-.771-1.904-.841-2.639-3.806-2.654-3.857l-2.258-7.692zm9.394-38.022l-.864-3.901h11.132v3.901h-10.268zM170.224 98.64h12.975l1.1.441-4.176 8.138h-6.882l-4.14-8.067 1.123-.512zm-6.032-18.682v-3.99c3.456 1.85 7.584 2.73 12.483 2.732h.012c4.9-.001 9.027-.882 12.484-2.732v3.99l-7.018 13.682h-10.944l-7.017-13.682zm9.851 32.261h5.276l5.801 82.254-8.439 10.627-8.438-10.627 5.8-82.254zm-.36 114.706v-3.901h5.997v3.901h-5.997zm23.73 4.319c13.327 0 21.269 16.322 22.017 23.955h-22.664l-5.466-8.706-.007.004a2.462 2.462 0 0 0-.781-.793 2.5 2.5 0 0 0-3.446.788l-5.466 8.706h-6.203c1.293-13.196 8.688-23.954 22.016-23.954zm-12.733-4.319v-3.901h27.456v3.901h-8.432a29.528 29.528 0 0 0-6.292-.682c-1.713 0-3.903.155-6.292.682h-6.44zm58.813-111.526c6.097-.096 15.377 1.889 24.052 10.159-3.832-.213-6.846.764-8.949 2.92-2.988 3.062-2.899 7.26-2.839 8.195-.001.195.023.38.032.57l-8.815 1.771c3.803-7.907 2.299-17.276-3.481-23.615zm34.226 22.55c.911 1.403 2.847 3.266 5.401 5.249a31.483 31.483 0 0 0-7.108 4.939c-.357.328-.693.684-1.038 1.029-1.517-1.154-3.28-2.218-5.12-3.321-4.497-2.697-9.148-5.485-9.097-9.224a2.279 2.279 0 0 0-.011-.261c-.002-.027-.172-2.753 1.428-4.393 1.073-1.1 2.835-1.579 5.202-1.419.242.023 5.943.616 10.343 7.401zm-20.389 4.084c2.168 3.433 6.23 5.869 9.953 8.101 1.605.962 3.145 1.89 4.4 2.814-.227.299-.456.593-.676.902-2.935.206-5.76.876-8.399 1.585-3.607.97-25.264 3.24-34.343-1.337-2.417-1.218-3.862-2.439-4.759-3.402 1.382.28 2.792.43 4.215.43h.002a21.247 21.247 0 0 0 15.013-6.161l14.594-2.932zm4.34 28.334c-4.998 1.892-9.641 3.072-13.933 3.717l-1.559-12.324c.284.002.568.006.852.006 7.074 0 13.744-.659 16.876-1.502a60.003 60.003 0 0 1 3.782-.906c-1.585 3.124-2.904 6.599-3.966 10.407-.777.181-1.465.379-2.052.602zm.723 5.047l-.034.174c-.076-.026-.15-.055-.227-.082.088-.031.174-.06.261-.092zm-1.014 23.305c-14.584-.199-21.801-1.18-22.099-5.831 1.549-5.197 3.235-9.706 5.023-13.436.408-.031 7.27-.924 10.199-1.635a72.957 72.957 0 0 0 7.022 2.77c-.68 4.988-1.025 10.401-1.025 16.244 0 .757.346 1.43.88 1.888zm-35.469-40.21c3.404 1.818 9.137 2.747 15.209 3.093l1.645 13.003a2.627 2.627 0 0 0-.444.021c-7.985.407-14.54-1.067-19.642-3.112-.27-.177-.568-.3-.887-.364a41.45 41.45 0 0 1-5.441-2.81 2.5 2.5 0 0 0-.817-.515c-2.951-1.914-4.862-3.705-5.702-4.565-1.085-8.154.692-15.08 2.158-19.094a21.44 21.44 0 0 0 4.331 3.646c.305.193.618.368.931.544a6.61 6.61 0 0 0 .235 1.769c.817 3.015 3.652 5.835 8.424 8.384zm-.732 19.007c3.947 1.174 8.477 1.977 13.557 2.092-1.555 3.571-3.02 7.678-4.374 12.27-.764 2.591-1.436 5.305-2.045 8.098l-7.138-22.46zm10.243 33.22c.018-.094.034-.187.041-.283.57-3.754 1.253-7.393 2.057-10.876 2.621 2.11 6.115 2.77 7.707 3.064 6.092 1.127 14.994 1.127 26.265 1.127 2.535 0 4.928 0 7.193-.013l-7.68 2.665c-14.351 3.349-17.482 17.387-17.608 17.984a2.5 2.5 0 0 0 .787 2.39l.688.609-18.265 75.456a17.558 17.558 0 0 0-.897-.809c-1.967-18.73-5.134-59.073-.288-91.314zm72.716-15.75c-.165.15-4.858 5.76-11.702 5.76s-11.537-5.609-11.702-5.76c-4.182-5.202-6.138-13.248-6.138-21.252 0-.519.011-1.026.022-1.532h12.818a2.5 2.5 0 0 0 2.231-1.373l2.769-5.479 2.768 5.479a2.5 2.5 0 0 0 2.232 1.373h12.818c.011.506.022 1.014.022 1.532 0 8.004-1.956 16.05-6.138 21.252zm5.547 4.343a412.574 412.574 0 0 0-.252 4.165l-4.513-1.566v-.626a21.63 21.63 0 0 0 2.088-1.974h2.677zm-8.228 6.677c-.216 4.771-1.574 9.001-9.021 9.001-7.439 0-8.803-4.219-9.02-9.002a2.492 2.492 0 0 0 1.463-1.732c2.319.96 4.848 1.474 7.557 1.474 2.709 0 5.237-.513 7.557-1.474.179.772.718 1.42 1.464 1.733zm-46.351 25.153l9.676 8.575.56 4.533c-.035.075-.077.145-.105.225l-22.629 65.156c-.031.09-.058.182-.078.274a3.162 3.162 0 0 1-3.767 2.389c-.024-.005-.049-.004-.073-.009l-2.269-3.95 18.685-77.193zm-6.744 77.161l18.36-52.866.891 7.218c-2.274 3.92-12.138 21.774-17.908 45.647h-1.343zm23.492-52.1h41.165l-.554 4.49h-40.057l-.554-4.49zm43.3-86.67l-.011.001a2.492 2.492 0 0 0-2.484-2.349h-13.685l-4.307-8.521-.007.003a2.487 2.487 0 0 0-1.097-1.107 2.498 2.498 0 0 0-3.359 1.104l-4.307 8.521h-13.685a2.492 2.492 0 0 0-2.484 2.349l-.011-.001a69.473 69.473 0 0 0-.122 4.184c0 8.187 1.683 15.22 4.672 20.595H265.52c.096-5.456.521-10.469 1.252-15.064.012-.071.029-.142.035-.213.361-2.24 1.37-6.611 1.389-6.717 1.478-5.742 6.271-14.701 6.283-14.718 1.438-2.146 3.037-4.058 4.815-5.707 8.008-7.422 17.077-6.848 17.148-6.848.068 0 8.961-.654 17.033 6.758 8.857 8.131 13.519 22.424 13.872 42.508h-12.746c2.989-5.375 4.672-12.408 4.672-20.595a67.887 67.887 0 0 0-.12-4.183zm-47.662-84.612c-9.761 0-17.702-11.34-17.702-25.278v-4.912c4.102-1.093 13.268-4.213 17.702-11.093 4.435 6.88 13.602 10 17.703 11.093v4.912c0 13.939-7.942 25.278-17.703 25.278zm-30.421-6.499c-7.714-11.369.023-31.186.102-31.385.117-.294.178-.609.178-.925 0-7.677 2.309-13.792 6.862-18.176 8.738-8.413 23.036-7.971 23.182-7.967.036.002.069-.006.105-.005.032 0 .062.007.094.005.134-.007 14.378-.482 23.156 7.946 4.567 4.386 6.884 10.509 6.884 18.197 0 .316.061.631.178.925.079.199 7.815 20.016.102 31.385-3.35 4.936-9.31 7.645-17.723 8.085v-1.777c6.032-5.448 10.005-14.661 10.005-25.087v-6.889h-.003a2.498 2.498 0 0 0-2.03-2.456c-.182-.035-18.17-3.589-18.17-15.185a2.5 2.5 0 1 0-5 0c0 11.527-17.904 15.134-18.17 15.186a2.498 2.498 0 0 0-2.029 2.456h-.003v6.889c0 10.426 3.973 19.638 10.004 25.086v1.778c-8.415-.441-14.375-3.15-17.724-8.086zm20.805 23.293a2.5 2.5 0 0 0 1.917-2.431V88.143c2.405 1.16 4.997 1.795 7.698 1.795s5.293-.635 7.698-1.795V99.3a2.5 2.5 0 0 0 1.917 2.431l11.382 2.731c-1.269 6.898-9.374 11.413-20.997 11.413s-19.727-4.514-20.997-11.413l11.382-2.73zm-18.244 4.378l1.986-.477a15.054 15.054 0 0 0 1.97 5.033c-4.002-.446-7.371-.15-9.629.369a21.272 21.272 0 0 0-2.797-1.278 26.074 26.074 0 0 1 8.47-3.647zm-13.102-4.266a25.828 25.828 0 0 1 2.127 3.57 31.423 31.423 0 0 0-3.947 3.044 24.847 24.847 0 0 0-.478-.017l2.298-6.597zm5.956 14.119c7.617 4.822 9.89 14.942 5.067 22.559a16.281 16.281 0 0 1-13.829 7.604h-.001c-3.088 0-6.107-.878-8.729-2.539a16.242 16.242 0 0 1-7.205-10.23 16.24 16.24 0 0 1 2.14-12.328c3.015-4.762 8.186-7.605 13.831-7.605 3.087.001 6.105.878 8.726 2.539zm-33.254-4.267a3.027 3.027 0 0 1 4.174-.937 2.501 2.501 0 0 0 2.676-4.225 7.998 7.998 0 0 0-6.233-.997 2.492 2.492 0 0 0 .933-2.064l-.911-17.271s9.02 4.321 9.177 4.361c6.075 1.576 10.471 4.139 13.673 7.018l-3.985 11.441a21.233 21.233 0 0 0-13.029 9.332c-.155.245-.281.502-.426.751l-5.109-3.235a3.026 3.026 0 0 1-.94-4.174zm-.947-5.59h.001a7.958 7.958 0 0 0-3.278 2.915c-2.366 3.739-1.25 8.707 2.487 11.074l5.771 3.655a21.2 21.2 0 0 0-.354 10.704 21.466 21.466 0 0 0 1.707 4.777c-1.604 3.371-5.519 13.185-3.622 25.54.071.466.273.902.582 1.258.066.076 2.296 2.572 6.559 5.404v46.591h-32.959v-8.026l10.464-13.177c.389-.49.58-1.107.536-1.73l-5.984-84.851 4.767-9.288 12.394 4.974c.298.121.614.18.929.18zm-3.552-22.374l.849 16.095-12.424-4.986 6.739-13.138c.041-.08.061-.168.094-.252l4.742 2.281zm-.967-37.624c0 2.248-2.061 4.076-4.594 4.076h-5.277c-2.532 0-4.593-1.828-4.593-4.076v-3.124h14.464v3.124zm-39.15-8.124c-.513-7.008.224-13.989 1.062-15.197.107-.107.186-.172.237-.209.349.09 1.114.504 1.741.843 2.599 1.405 6.947 3.755 15.02 3.757h.012c8.075-.002 12.424-2.353 15.022-3.757.628-.339 1.396-.755 1.743-.844.043.029.103.074.171.139.896 1.274 1.638 8.26 1.126 15.268h-36.134zm-5.517 0a2.5 2.5 0 0 0-2.5 2.5v4.713c-1.673-3.541-2.995-10.499-.829-24.027C151.1 12.855 152.357 5.001 176.681 5c24.325.001 25.583 7.855 26.914 16.17 2.166 13.53.843 20.488-.83 24.028v-4.714a2.5 2.5 0 0 0-2.5-2.5h-.513c.386-6.176.192-16.01-2.53-18.732-2.92-2.92-5.674-1.426-7.891-.229-2.463 1.331-5.837 3.155-12.65 3.156-6.812-.001-10.186-1.825-12.65-3.156-2.216-1.198-4.973-2.687-7.891.229-2.722 2.722-2.915 12.556-2.53 18.732h-.512zm2.5 5h14.464v3.124c0 2.248-2.061 4.076-4.593 4.076h-5.277c-2.533 0-4.594-1.828-4.594-4.076v-3.124zm.701 11.412a9.988 9.988 0 0 0 3.893.788h5.277c5.289 0 9.593-4.071 9.593-9.076v-3.124h3.239v3.124c0 5.004 4.304 9.076 9.593 9.076h5.277a9.988 9.988 0 0 0 3.893-.788c-3.65 15.902-10.826 19.304-20.383 19.305-9.557-.002-16.732-3.403-20.382-19.305zm-1.716 29.36l4.791-2.305c.031.084.052.172.093.252l6.795 13.248-12.535 5.71.856-16.905zm-14.264 6.808c.157-.041 9.132-4.34 9.132-4.34l-.926 18.29a2.5 2.5 0 0 0 3.533 2.402l12.488-5.688 4.624 9.012-5.983 84.851a2.496 2.496 0 0 0 .536 1.73l10.454 13.166v8.038h-17.733l-12.972-58.563c-.036-.158-.639-2.736-2.245-6.227v-13.367c0-.055-.122-.773-.139-.822l-14.446-41.473c3.176-2.842 7.572-5.425 13.677-7.009zm-21.814 21.746c.035-.368.584-5.271 4.321-10.49l13.316 38.23-.791 3.999c-4.48-5.154-10.171-8.643-16.667-10.17l-4.199-1.007c.001-.001 4.013-20.482 4.02-20.562zm-10.117-17.791a3.845 3.845 0 0 1-3.841 3.841H99.83a3.846 3.846 0 0 1-3.842-3.841v-2.923h12.399v2.923zm-14.899-7.923a2.496 2.496 0 0 0-2.493 2.428h-2.672a2.496 2.496 0 0 0-2.492-2.428H73.017c3.099-1.569 7.359-4.303 9.902-8.393 2.227 3.094 6.219 6.42 13.305 8.393h-2.735zm-3.827-42.562c6.03 0 10.936 4.906 10.936 10.937 0 1.152-.202 2.284-.553 3.367-3.12-1.386-6.637-2.158-10.383-2.158-3.746 0-7.264.772-10.385 2.159a10.932 10.932 0 0 1-.553-3.368c0-6.031 4.906-10.937 10.938-10.937zM70.943 78.327c0-9.615 8.223-17.147 18.719-17.147s18.719 7.532 18.719 17.147l.008 4.985c-22.311-.79-23.28-12.135-23.311-12.604-.047-1.362-1.198-2.459-2.542-2.411a2.5 2.5 0 0 0-2.456 2.5c0 5.599-5.463 9.351-9.147 11.245l.01-3.715zm-.01 13.269h12.398v2.923a3.845 3.845 0 0 1-3.84 3.841h-4.718a3.845 3.845 0 0 1-3.841-3.841v-2.923zm1.023 11.296a8.787 8.787 0 0 0 2.817.468h4.718c4.874 0 8.84-3.966 8.84-8.841v-.495h2.657v.495c0 4.875 3.967 8.841 8.842 8.841h4.717a8.81 8.81 0 0 0 2.817-.468c-2.533 9.413-9.51 16.196-17.703 16.196-8.194 0-15.17-6.783-17.705-16.196zm8.088 31.471a2.5 2.5 0 0 0 1.917-2.431v-9.42c2.417 1.017 5.005 1.577 7.7 1.577 2.693 0 5.281-.56 7.696-1.575v9.419a2.5 2.5 0 0 0 1.917 2.431l4.915 1.179-5.865 16.948H80.996l-5.865-16.948 4.913-1.18zm16.55 23.127l-6.934 20.035-6.934-20.035h13.868zM28.036 272.655c-.013.045-.755 3.145-2.65 3.841-1.485.545-2.927 1.119-4.467.771a5.885 5.885 0 0 1-3.704-2.615 5.894 5.894 0 0 1-.768-4.478l.476-2.149a7.282 7.282 0 0 1 2.738 5.687 2.5 2.5 0 1 0 5 0c0-4.72-2.677-8.82-6.589-10.879l.411-1.856 11.764 3.954-2.211 7.724zm25.38-88.636l-21.791 76.1-12.054-4.051 21.153-95.498c.071-.308.859-3.561 3.009-7.506l10.982 11.406c-3.355 8.218-2.819 14.432-1.299 19.549zm7.528 21.961c4.003-6.843 1.673-12.358-.581-17.691-2.61-6.179-5.311-12.568-.417-23.319a2.5 2.5 0 0 0-.475-2.77l-12.944-13.443c3.229-4.21 8.09-8.327 15.273-10.016l8.444-2.026 16.916 48.874v59.79H49.107c.131-5.818 1.513-21.753 11.837-39.399zm26.218 228.821H64.401c2.231-8.065 8.908-8.71 9.844-8.761h12.917v8.761zm0-13.761H76.256c-5.159-28.515-8.023-56.004-9.559-75.013h20.464v75.013zm27.758 13.761H92.162v-8.761h12.912c.924.049 7.613.687 9.846 8.761zm-11.855-13.761H92.162v-75.013h20.462c-1.536 19.009-4.4 46.498-9.559 75.013zm19.392-80.013H56.864c-9.597-57.732-8.603-83.596-7.997-90.649h81.594c.614 7.013 1.627 32.713-8.004 90.649zm7.749-95.649H92.161v-59.79l16.914-48.874 8.455 2.029c6.14 1.443 11.244 4.835 15.226 10.054L119.848 162.2a2.502 2.502 0 0 0-.475 2.77c4.894 10.751 2.193 17.141-.417 23.319-2.254 5.333-4.584 10.849-.581 17.691 10.289 17.584 11.691 33.568 11.831 39.398zm-5.643-45.983l-1.131 5.363c-.245-.434-.485-.867-.74-1.303-2.278-3.894-1.61-7.029-.116-10.828l1.987 6.768zm1.007-14.318c1.759-5.314 2.625-11.813-.967-20.607l10.957-11.377c2.23 4.084 3.027 7.435 3.033 7.461l21.156 95.514-12.138 4.079-6.431-21.899a2.48 2.48 0 0 0-.155-.531l-15.455-52.64zm39.621 249.724h-32.422c.227-2.55 1.001-6.617 3.565-9.333 1.903-2.017 4.474-2.997 7.856-2.997h21v12.33zm.134-17.33h-24.098v-52.073a9.704 9.704 0 0 0 3.352 1.865 9.893 9.893 0 0 0 3.044.493c3.064 0 5.694-1.542 6.604-4.125l11.928-27.169.268.105a2.499 2.499 0 0 0 3.124-1.153l.323-.609-4.545 82.666zm24.68 17.33h-19.4c.285-1.324.868-2.935 2.053-4.148 1.28-1.312 3.053-1.949 5.419-1.949h11.929v6.097zm-19.814-8.628v-6.136l1.016-18.48c.388.247.846.395 1.339.395h1.122l1.723 21.973c-1.995.345-3.731 1.101-5.2 2.248zm19.814-2.47h-9.617l-1.705-21.751h11.322v21.751zm9.815 11.098h-4.814v-12.33h4.814v12.33zm0-17.33h-4.814v-15.519h.213c.943 0 1.77-.527 2.194-1.312a2.494 2.494 0 0 0 2.194 1.312h.213v15.519zm22.347 13.181c1.186 1.214 1.768 2.826 2.053 4.148h-19.4v-6.098h11.929c2.366.001 4.138.639 5.418 1.95zm-17.347-6.949v-21.751h11.322l-1.705 21.751h-9.617zm14.96-26.751h-17.909L199.9 377.13h-.001a2.499 2.499 0 0 0-4.973 0l-1.971 19.822h-17.909v-29.204h44.734v29.204zm8.868-65.855l-4.16-7.829a2.5 2.5 0 0 0-4.707 1.173v38.306h-44.734v-38.306a2.5 2.5 0 0 0-4.708-1.173l-4.16 7.829-15.551-6.125s9.21-16.063 9.25-16.157c.1-.237 2.802-5.626 13.545-7.213.053-.008 11.127-2.137 11.127-2.137 2.131 3.187 7.365 6.199 12.85 6.199h.03c5.482 0 10.714-3.01 12.847-6.2l3.853.742a.325.325 0 0 0 .014.003l7.105 1.368c.053.01.106.019.159.025 10.975 1.386 14.215 8.428 14.215 8.428l.053.092 8.527 14.851-15.555 6.124zm20.058 31.409c-1.754.568-3.203.043-3.396-.552a2.35 2.35 0 0 0-.089-.234l-11.893-27.091 7.364-2.901 10.44 28.338c.193.596-.676 1.872-2.426 2.44zm20.285 64.367c-2.544 2.349-4.176 5.396-5.048 7.928h-13.682c5.083-5.308 7.073-11.433 7.814-14.648h10.915v6.72zm0-11.721h-10.905a802.258 802.258 0 0 1-7.266-48.102c3.941-1.538 6.15-5.185 5.036-8.62l-5.191-14.094c.378.23.817.37 1.292.37h14.893c.123 10.125.988 21.486 2.142 32.439v38.007zm.349 19.641c1.316-2.839 4.019-6.632 9.067-6.644h10.081l.002 6.603-19.15.041zm24.127-90.086h1.014a689.065 689.065 0 0 1-1.011 10.653l-.003-10.653zm.024 90.094V433.6c.38.407.757.816 1.151 1.201h-1.151zm5.89-2.448c-2.2-1.917-4.171-4.21-5.892-6.858l-.009-31.238c2.562-16.591 4.549-32.87 5.925-48.465l-.024 86.561zm5 2.399l.002-6.603h10.079c5.051.011 7.753 3.807 9.067 6.644l-19.148-.041zm37.956.049h-13.41c-1.173-3.405-3.715-7.748-8.009-10.05a12.838 12.838 0 0 1 2.585-.254h18.834v10.304zm3.082-15.304h-24.375v-19.438c2.307-16.417 4.764-37.752 4.978-55.352h14.891a2.5 2.5 0 0 0 2.5-2.5c0-39.628-18.893-73.915-22.153-79.535l.225-1.821h2.541l17.474 50.313a8.095 8.095 0 0 0 7.31 6.184l-3.391 102.149zm6.663-108.573a3.128 3.128 0 0 1-1.975 1.387 3.135 3.135 0 0 1-2.377-.415c-.712-.451-1.435-2.159-1.466-2.249 0 0-22.699-65.308-22.734-65.384l.559-4.53 9.677-8.577 18.732 77.39a3.134 3.134 0 0 1-.416 2.378zm7.906 108.573l-3.523-106.175a8.122 8.122 0 0 0 .902-5.908l-1.275-5.27-.9-22.331c-.002-.048.048-2.273-2.361-2.273-2.402 0-2.361 1.23-2.385 1.277l-4.348-17.965h38.266v158.645h-24.376zm32.03 15.304H363.07v-10.304h18.834c3.058 0 5.365.867 7.056 2.649 2.12 2.238 2.829 5.474 3.058 7.655zm12.021-188.245l-14.726-72.418a2.5 2.5 0 0 0-4.927.839c.068.496 6.457 47.786.854 80.875h-40.353l-6.886-28.448.685-.607a2.5 2.5 0 0 0 .787-2.389c-.126-.598-3.256-14.636-17.606-17.985l-3.521-1.222a429.8 429.8 0 0 1 .347-5.871h11.177a2.5 2.5 0 0 0 2.5-2.5c0-22.858-5.219-39.24-15.513-48.691-4.304-3.952-8.775-5.987-12.454-7.028 2.713-3.623 7.444-7.662 15.627-9.727.061-.015 6.533-2.183 6.533-2.183l.643 14.437a2.499 2.499 0 0 0 3.51 2.175l1.593-.706c1.598 4.872 5.64 10.956 13.579 13.285.032.01.06.026.093.035.018.005.036.003.054.007.923.264 3.794.995 6.667.995 2.873 0 5.746-.731 6.669-.995.018-.004.036-.002.054-.007.033-.009.06-.025.093-.035 7.939-2.329 11.981-8.412 13.579-13.285l1.593.706a2.495 2.495 0 0 0 2.329-.161 2.499 2.499 0 0 0 1.181-2.014l.644-14.437s6.472 2.167 6.533 2.183c17.96 4.531 19.556 18.364 19.614 18.938.008.09 19.386 96.234 19.386 96.234h-20.338zm11.353 24.672c-2.049-.823-2.751-4.247-2.767-4.317l-1.345-6.06h12.517l.147 1.08c-4.306 1.277-7.636 4.848-8.552 9.297zm7.943-1.438a5.883 5.883 0 0 1-2.937 2.027 7.313 7.313 0 0 1 4.04-4.747 5.553 5.553 0 0 1-1.103 2.72zm.539-13.938h-14.367l-2.85-4.296h17.868l-.651 4.296z" fill="#1c1b1a"/><path d="M176.78 68.684c5.286 0 8.977-2.147 8.977-5.223a2.5 2.5 0 0 0-4.929-.597c-.486.3-1.873.82-4.049.82-2.177 0-3.562-.52-4.049-.819a2.502 2.502 0 0 0-4.929.597c.001 3.075 3.693 5.222 8.979 5.222zm-13.853-19.458c.66 0 1.3-.26 1.771-.73.46-.47.729-1.11.729-1.77 0-.65-.27-1.3-.729-1.76-.931-.93-2.61-.94-3.54 0-.46.46-.73 1.1-.73 1.76 0 .66.271 1.31.73 1.77.469.47 1.109.73 1.769.73zm27.7 0c.66 0 1.3-.26 1.77-.73.471-.46.73-1.11.73-1.77 0-.65-.26-1.3-.73-1.77-.93-.92-2.6-.93-3.529 0-.471.47-.74 1.11-.74 1.77 0 .66.27 1.31.74 1.77.46.47 1.109.73 1.759.73z" fill="#1c1b1a"/></svg>