<svg height="512" viewBox="0 0 495.992 495.992" width="512" xmlns="http://www.w3.org/2000/svg"><g fill="#e19974"><path d="M42.165 127.119l-39.673 7.335a2.107 2.107 0 0 1-2.422-2.602l.49-1.884a51.618 51.618 0 0 1 30.999-35.022l1.623-.641L61.92 80.262l1.486 42.655zm251.622 205.972a7.498 7.498 0 0 0-10.281 2.609l-23.305 39.159-42.698 68.503h-17.75a7.5 7.5 0 0 0 0 15h21.913a7.5 7.5 0 0 0 6.365-3.533l4.605-7.388 5.494 7.756a7.5 7.5 0 0 0 6.12 3.165h16.476c4.143 0 7.5-3.358 7.5-7.5s-3.357-7.5-7.5-7.5h-12.598l-6.888-9.724 31.732-50.91c.026-.043.054-.087.08-.132l23.345-39.226a7.499 7.499 0 0 0-2.61-10.279z"/><path d="M258.278 343.548a7.5 7.5 0 0 0-2.188-10.378 7.5 7.5 0 0 0-10.379 2.188l-25.622 39.309-.07.109-19.682 31.365-.032.052-8.366 13.333h-17.765a7.5 7.5 0 0 0 0 15h21.913a7.5 7.5 0 0 0 6.353-3.514l4.633-7.383 5.477 7.732a7.5 7.5 0 0 0 6.12 3.165h16.476a7.5 7.5 0 0 0 0-15h-12.597l-6.841-9.657 16.984-27.065z"/></g><path d="M351.692 376.522l130.015 84.736a9.24 9.24 0 0 0 11.449-14.402l-65.4-62.872-73.293-78.417s-45.968 41.756-44.799 41.366c1.168-.391 42.028 29.589 42.028 29.589z" fill="#b5adb6"/><path d="M65.266 137.176c4.31 1.88 7.64 5.47 9.18 9.9l19.58 56.09a84.933 84.933 0 0 1 4.14 17.87l.438 3.639.002.001 176.931 4.21-67.471-72.36-59.38-56.67a4.402 4.402 0 0 1-1.22-2.32l-1.24-6.67a74.471 74.471 0 0 0-12.14-29.02 74.35 74.35 0 0 0-23.07-21.41c-8.09-4.8-17.17-7.2-26.28-7.2-8.32 0-16.65 2.01-24.24 6.05-16.81 8.95-27.31 26.45-27.31 45.5v9.52l3.66 5.37c3.73 5.48 5.66 12 5.52 18.63l-.2 8.81z" fill="#8ebac5"/><path d="M42.15 127.122l23.116 10.054c4.31 1.88 7.64 5.47 9.18 9.9l19.58 56.09a84.933 84.933 0 0 1 4.14 17.87l.438 3.641.002-.001 40.962 10.19-1.067-8.866a84.933 84.933 0 0 0-4.14-17.87l-19.58-56.09a16.844 16.844 0 0 0-9.18-9.9 55.178 55.178 0 0 1-32.08-50.111V89.75c0-19.05 10.5-36.55 27.31-45.5a51.604 51.604 0 0 1 9.861-4.005 51.383 51.383 0 0 0-25.957-7.01c-8.32 0-16.65 2.01-24.24 6.05-16.81 8.95-27.31 26.45-27.31 45.5v9.52l3.66 5.37c3.73 5.48 5.66 12 5.52 18.63z" fill="#7ca1b1"/><path d="M246.826 198.096l150.87 161.8-54.56 14.25-73.29 4.56c-85.1 5.28-159.55-56.73-169.72-141.38l-1.52-12.65c14.01-8.11 29.6-13.11 45.71-14.66l13.12-1.27z" fill="#b5adb6"/><path d="M478.396 374.096c1.68 1.62.75 4.46-1.56 4.78l-16.19 2.25c-116.21 16.12-231.17-36.88-294.38-135.72a57.528 57.528 0 0 1-9.1-31.09c0-16.65 7.18-33.07 20.79-44.41a57.746 57.746 0 0 1 36.98-13.38c9.1 0 18.24 2.14 26.65 6.52l20.03 10.42 13.42 7.93a455.258 455.258 0 0 1 145.04 136.33z" fill="#d7d0d6"/><path d="M77.519 90.711a7.5 7.5 0 0 1-7.5-7.5v-5.898a7.5 7.5 0 0 1 15 0v5.898a7.5 7.5 0 0 1-7.5 7.5z" fill="#918291"/><path d="M375.763 262.25l-.007.005a4.15 4.15 0 0 1-2.338 1.095l-12.832 1.565a75.194 75.194 0 0 0-55.66 36.42 75.359 75.359 0 0 1-30.78 28.86l-14.91 7.55a299.795 299.795 0 0 1-37.71-28.093l14.97-7.577a75.359 75.359 0 0 0 30.78-28.86 75.194 75.194 0 0 1 55.66-36.42l23.808-2.918a451.89 451.89 0 0 1 29.019 28.373zm102.633 111.846c1.68 1.62.75 4.46-1.56 4.78l-16.19 2.25a299.95 299.95 0 0 1-136.211-12.541l11.381-11.969a211.432 211.432 0 0 1 75.712-51.061c2.92 4 5.768 8.071 8.548 12.171zM260.422 379.018c-62.747-16.015-111.846-69.165-119.964-136.729l-1.96-16.29a84.796 84.796 0 0 0-3.12-14.761 112.87 112.87 0 0 0-36.775 13.437l1.52 12.65c9.543 79.436 75.692 138.932 154.128 141.598.001 0 6.159.122 6.171.095z" fill="#a79ba7"/></svg>