<svg xmlns="http://www.w3.org/2000/svg" viewBox="0 0 512.001 512.001" width="512" height="512"><g fill-rule="evenodd" clip-rule="evenodd"><path d="M140.561 168.731H371.44c0-63.492-51.947-115.44-115.439-115.44-63.492 0-115.44 51.948-115.44 115.44z" fill="#666"/><path d="M346.002 249.578l-21.213 21.213c-11.716 11.716-11.716 30.711 0 42.426a30.278 30.278 0 0 0 3.536 3.03c11.734 8.58 28.291 7.569 38.89-3.03 11.716-11.716 11.716-30.71 0-42.426l-3.347-3.347-17.866-17.866z" fill="#a4dded"/><path d="M324.789 270.791l21.213-21.213 17.866 17.866a114.388 114.388 0 0 0 7.572-40.994v-57.719H140.561v57.719c0 63.492 51.948 115.439 115.44 115.439 27.32 0 52.5-9.623 72.324-25.641a30.269 30.269 0 0 1-3.535-3.03c-11.717-11.716-11.717-30.711-.001-42.427z" fill="#f4cdac"/><path d="M371.44 226.45c0 14.419-2.687 28.239-7.572 40.994l3.347 3.347c11.716 11.716 11.716 30.711 0 42.426-10.599 10.599-27.156 11.609-38.891 3.03-19.824 16.018-45.003 25.641-72.324 25.641-63.492 0-115.44-51.947-115.44-115.439V168.73c0-63.492 51.947-115.44 115.44-115.44 63.492 0 115.439 51.948 115.439 115.44v57.72h.001zm43.29 57.723V168.729C414.73 81.428 343.302 10 256.001 10 168.7 10 97.272 81.428 97.272 168.729v115.444c0 19.49 3.56 38.188 10.062 55.478C127.696 393.8 176.915 434.126 236 441.638a158.21 158.21 0 0 0 20.001 1.265c6.771 0 13.447-.43 20.001-1.265 59.085-7.512 108.304-47.837 128.667-101.987 6.501-17.289 10.061-35.988 10.061-55.478z" fill="#999"/><path d="M236 502.002v-60.364c-59.086-7.512-108.304-47.837-128.667-101.987-33.508 11.427-53.353 40.335-53.353 70.779v91.571H236z" fill="#666"/><path d="M236 441.638v60.364h40.001V441.64A158.585 158.585 0 0 1 256 442.903c-6.77 0-13.446-.43-20-1.265z" fill="#999"/><path d="M276.002 441.64v60.362h182.019V410.43c0-30.445-19.845-59.352-53.352-70.779-20.363 54.149-69.582 94.475-128.667 101.989z" fill="#666"/></g><path d="M451.967 361.986c-8.842-12.04-20.725-21.609-34.727-28.06 4.928-15.925 7.49-32.651 7.49-49.753V168.729c0-44.894-17.599-87.217-49.556-119.174C343.218 17.599 300.895 0 256.001 0a167.951 167.951 0 0 0-85.32 23.32c-4.756 2.808-6.335 8.939-3.527 13.695 2.808 4.755 8.941 6.334 13.695 3.527A147.95 147.95 0 0 1 256.001 20C338.01 20 404.73 86.72 404.73 168.729v115.444c0 17.924-3.188 35.117-9.025 51.043-.191.387-.367.785-.51 1.205-.063.184-.107.369-.158.554a148.12 148.12 0 0 1-9.939 20.991c-40.337-.236-74.971-3.067-104.391-8.579a125.843 125.843 0 0 0 48.363-21.144 40.1 40.1 0 0 0 16.933 3.742c10.243 0 20.486-3.899 28.284-11.696 7.555-7.555 11.716-17.6 11.716-28.284 0-10.156-3.766-19.729-10.626-27.14a124.16 124.16 0 0 0 6.064-38.414v-57.718c0-69.168-56.271-125.44-125.439-125.44s-125.44 56.272-125.44 125.44v57.718c0 1.193.021 2.381.054 3.565 1.122 54.698 28.125 94.692 80.337 118.889 38.729 17.948 91.385 27.431 160.53 28.88-23.508 28.945-57.649 48.92-96.423 53.902-.106.01-.209.026-.314.04a149.468 149.468 0 0 1-18.745 1.177c-6.349 0-12.606-.402-18.748-1.178-.104-.013-.206-.029-.311-.039-55.069-7.075-100.799-44.389-119.974-94.701-.052-.188-.097-.377-.161-.564-.144-.421-.321-.82-.513-1.208-5.836-15.925-9.023-33.117-9.023-51.04V168.729c0-26.402 7.102-52.386 20.538-75.144 2.808-4.756 1.229-10.887-3.527-13.695-4.753-2.807-10.886-1.229-13.695 3.527a167.923 167.923 0 0 0-23.315 85.312v115.444c0 17.102 2.561 33.828 7.49 49.753-14.001 6.452-25.886 16.021-34.727 28.061-10.502 14.301-16.053 31.053-16.053 48.444v91.571c0 5.523 4.477 10 10 10s10-4.477 10-10v-91.571c0-24.645 14.587-46.463 37.857-57.725 8.328 18.605 20.098 35.75 34.99 50.641 24.722 24.722 55.651 40.843 89.173 46.878v51.776c0 5.523 4.477 10 10 10s10-4.477 10-10v-49.403c3.318.195 6.651.305 10.001.305 3.349 0 6.682-.11 10-.305v49.403c0 5.523 4.478 10 10 10s10-4.477 10-10v-51.776c33.522-6.036 64.451-22.156 89.173-46.879 14.892-14.892 26.662-32.036 34.99-50.641 23.269 11.261 37.857 33.08 37.857 57.725v91.571c0 5.523 4.478 10 10 10s10-4.477 10-10V410.43c-.002-17.39-5.553-34.142-16.056-48.444zM150.561 226.449v-47.718H361.44v47.718c0 7.467-.809 14.839-2.366 22.059l-6.002-6.002c-3.906-3.905-10.236-3.905-14.143 0l-21.213 21.213c-7.555 7.555-11.716 17.6-11.716 28.285 0 8.297 2.519 16.202 7.179 22.861-16.99 11.024-36.92 17.023-57.18 17.023-57.158 0-103.837-45.716-105.397-102.504-.016-.975-.041-1.947-.041-2.935zm209.583 79.697c-7.797 7.798-20.486 7.798-28.283 0a19.87 19.87 0 0 1-5.858-14.142 19.87 19.87 0 0 1 5.858-14.142l14.142-14.142 10.935 10.935.001.001 3.205 3.205a19.87 19.87 0 0 1 5.858 14.142 19.871 19.871 0 0 1-5.858 14.143zM256.001 63.291c54.767 0 99.908 41.973 104.962 95.44H151.039c5.054-53.467 50.195-95.44 104.962-95.44z"/><path d="M231.001 232.754c4.783-2.762 6.421-8.878 3.66-13.661-2.761-4.782-8.877-6.42-13.661-3.66a30.044 30.044 0 0 1-15 4.02 30.03 30.03 0 0 1-14.999-4.02c-4.783-2.762-10.898-1.125-13.661 3.66-2.762 4.783-1.123 10.898 3.66 13.661 7.59 4.383 16.235 6.699 25 6.699s17.411-2.316 25.001-6.699zm50 0c7.59 4.383 16.235 6.699 25 6.699s17.41-2.316 25-6.699c4.783-2.762 6.422-8.878 3.66-13.661s-8.88-6.422-13.66-3.66c-4.555 2.629-9.741 4.02-15 4.02s-10.445-1.39-15-4.02c-4.784-2.763-10.898-1.122-13.66 3.66-2.762 4.783-1.123 10.899 3.66 13.661zm-53.66 54.25a9.996 9.996 0 0 0 13.66 3.659c4.554-2.63 9.74-4.02 15-4.02s10.446 1.39 15 4.02c4.785 2.764 10.898 1.122 13.66-3.66 2.762-4.783 1.123-10.899-3.66-13.661a50.058 50.058 0 0 0-25-6.699 50.053 50.053 0 0 0-25 6.699c-4.784 2.764-6.422 8.88-3.66 13.662zM143.754 66.492a9.978 9.978 0 0 0 7.378-3.244c3.732-4.071 3.457-10.397-.614-14.129-4.072-3.732-10.397-3.457-14.129.614l-.005.006c-3.732 4.071-3.454 10.394.617 14.126a9.96 9.96 0 0 0 6.753 2.627zM418.02 492.001h-39.996c-5.522 0-10 4.477-10 10s4.478 10 10 10h39.996c5.522 0 10-4.477 10-10s-4.478-10-10-10zm-79.992 0h-.008c-5.522 0-9.996 4.477-9.996 10s4.481 10 10.004 10 10-4.477 10-10-4.478-10-10-10z"/></svg>