<svg xmlns="http://www.w3.org/2000/svg" viewBox="0 0 512 512"><g fill="#49618c"><path d="M421.244 55.272l-66.391 66.391-47.667-47.666 66.391-66.391zm-210.7 109.653l-46.362-5.809-22.699 22.698h29.508l37.232 18.57 51.971 24.221-18.483-31.936z"/><path d="M376.891 143.704l-42.197 42.187c0 .01-.01.01-.01.01l-83.207 83.207 11.761 40.656-53.228 39.54-27.374-42.582-14.478-61.622 29.655-29.655c8.952-8.942 13.87-20.409 14.731-32.129 1.054-14.214-3.853-28.794-14.731-39.672l89.503-89.503 89.575 89.563z"/></g><g fill="#3b4773"><path d="M341.233 140.954l-61.287 61.288-52.206-52.206 61.288-61.287z"/><path d="M251.477 269.108l11.761 40.656-53.228 39.54-27.374-42.582-14.478-61.622 29.655-29.655c8.952-8.942 13.87-20.409 14.731-32.129.912.973 43.89 47.053 122.139 2.585l-83.206 83.207z"/></g><path d="M388.581 363.721l-34.694 34.684-19.78 19.78a128.027 128.027 0 0 1-35.444 25.042 108.859 108.859 0 0 1-4.157 1.886 127.452 127.452 0 0 1-37.614 9.875l-32.302 49.405H90.76l81.94-129.561a124.496 124.496 0 0 1-23.886-78.371l2.91-73.941a20.492 20.492 0 0 1 6.195-13.92 20.503 20.503 0 0 1 14.062-5.86c11.507-.182 20.926 9.084 20.926 20.591v40.808c0 7.624 3.001 14.012 7.614 18.584 9.581 9.51 26.127 11.213 37.32.03l71.497-71.507 25.346-25.346a20.432 20.432 0 0 1 14.488-5.992 20.427 20.427 0 0 1 14.478 5.992c7.999 7.999 7.999 20.967 0 28.966l-23.319 23.319-14.356 14.356a20.437 20.437 0 0 1 14.478-6.002 20.443 20.443 0 0 1 14.488 6.002c7.999 7.999 7.999 20.967 0 28.966l-4.42 4.42a20.401 20.401 0 0 1 14.488-6.002 20.395 20.395 0 0 1 14.478 6.002c7.999 7.999 7.999 20.967 0 28.956l-19.872 19.872c7.999-7.999 20.967-7.999 28.966 0 7.989 8 7.989 20.967 0 28.966z" fill="#f7d39f"/><path d="M294.505 445.114a127.452 127.452 0 0 1-37.614 9.875l-32.302 49.405H90.76l81.94-129.561a124.496 124.496 0 0 1-23.886-78.371l2.91-73.941a20.492 20.492 0 0 1 6.195-13.92 20.503 20.503 0 0 1 14.062-5.86c11.507-.182 20.926 9.084 20.926 20.591v40.808c0 7.624 3.001 14.012 7.614 18.584v.01c-.001 0-16.577 120.213 93.984 162.38zm69.145-230.247l-23.319 23.319c-6.59-34.309-30.994-26.938-30.994-26.938l25.346-25.346a20.432 20.432 0 0 1 14.488-5.992 20.427 20.427 0 0 1 14.478 5.992c8 7.998 8 20.965.001 28.965z" fill="#e2be8d"/><path d="M386.859 78.899a7.602 7.602 0 0 0 0 10.753 7.602 7.602 0 0 0 10.753 0l29.005-29.005a7.602 7.602 0 0 0 0-10.753L378.952 2.227a7.602 7.602 0 0 0-10.753 0l-61.018 61.018-14.485-14.485a7.602 7.602 0 0 0-10.753 0l-89.504 89.504a7.602 7.602 0 0 0 0 10.753 43.75 43.75 0 0 1 5.461 6.658l-32.771-4.106a7.605 7.605 0 0 0-6.322 2.169l-22.698 22.698a7.603 7.603 0 0 0 5.376 12.98h27.717l28.535 14.232a42.836 42.836 0 0 1-2.468 3.304 28.616 28.616 0 0 0-3.176-3.722c-5.429-5.344-12.648-8.217-20.233-8.099-14.96.239-27.141 12.138-27.73 27.088l-2.914 73.941c-1.1 27.921 6.812 55.729 22.354 78.886l-23.141 36.59a7.604 7.604 0 0 0 12.852 8.129l25.847-40.869a7.603 7.603 0 0 0-.288-8.551c-15.498-21.207-23.463-47.34-22.429-73.587l2.914-73.941c.272-6.888 5.884-12.371 12.777-12.482 3.49-.045 6.821 1.269 9.322 3.732a12.898 12.898 0 0 1 3.88 9.262v40.81c0 13.982 8.025 25.991 20.941 31.341 12.919 5.35 27.083 2.534 36.97-7.353l96.853-96.853c5.021-5.018 13.187-5.017 18.207.003 5.021 5.021 5.021 13.189 0 18.21L278.462 289.3a7.602 7.602 0 0 0 0 10.753 7.602 7.602 0 0 0 10.753 0l42.138-42.138c5.021-5.02 13.189-5.02 18.21 0 5.021 5.021 5.021 13.189 0 18.21L312.14 313.55a7.602 7.602 0 0 0 5.376 12.98 7.576 7.576 0 0 0 5.376-2.227l33.005-33.005c5.02-5.019 13.188-5.02 18.209 0 5.021 5.021 5.021 13.189 0 18.21l-39.066 39.067a7.602 7.602 0 0 0 5.376 12.98 7.576 7.576 0 0 0 5.376-2.227l19.194-19.194.003-.002a12.795 12.795 0 0 1 9.104-3.772c3.439 0 6.673 1.339 9.104 3.772 5.02 5.021 5.02 13.189 0 18.21l-54.468 54.468c-19.461 19.461-45.254 31.754-72.627 34.613a7.603 7.603 0 0 0-5.574 3.401l-32.307 49.406a7.605 7.605 0 0 0 12.729 8.324l30.363-46.435c29.474-3.893 57.113-17.499 78.169-38.556l54.469-54.468c10.949-10.95 10.949-28.767-.001-39.717a27.939 27.939 0 0 0-11.31-6.9l2.216-2.216c10.95-10.95 10.95-28.767 0-39.717a27.946 27.946 0 0 0-16.85-8.046 28.37 28.37 0 0 0 .531-5.477c0-7.502-2.921-14.554-8.225-19.858a27.95 27.95 0 0 0-11.31-6.9l20.022-20.022c10.95-10.95 10.95-28.767 0-39.717a27.897 27.897 0 0 0-11.324-6.886l24.56-24.56a7.6 7.6 0 0 0 0-10.752l-16.664-16.664 11.735-11.735a7.602 7.602 0 0 0 0-10.753 7.602 7.602 0 0 0-10.753 0l-11.735 11.735-5.828-5.828 55.642-55.642 5.828 5.828-23.626 23.631zM174.385 175.01a7.6 7.6 0 0 0-3.393-.8h-11.15l7.087-7.087 37.457 4.693c.454 2.526.698 5.108.698 7.728 0 3.472-.415 6.881-1.206 10.174l-29.493-14.708zm191.749-31.305L232.462 277.377c-6.52 6.52-14.811 6.37-20.397 4.056s-11.554-8.07-11.554-17.291v-40.81c0-.26-.012-.517-.019-.775a7.572 7.572 0 0 0 2.699-1.735c11.026-11.026 17.099-25.685 17.099-41.279 0-13.029-4.24-25.407-12.067-35.558l79.096-79.096 78.815 78.816zM338.265 94.33l-20.332-20.332 55.642-55.642 20.332 20.332-55.642 55.642z"/><path d="M294.399 83.374a7.602 7.602 0 0 0-10.753 0L222.36 144.66a7.602 7.602 0 0 0 0 10.753l52.207 52.207a7.603 7.603 0 0 0 10.752 0l61.286-61.286a7.601 7.601 0 0 0 0-10.752l-52.206-52.208zm-14.455 108.115l-6.197-6.197 22.231-22.231a7.602 7.602 0 0 0 0-10.753 7.602 7.602 0 0 0-10.753 0l-22.231 22.231-10.529-10.529 22.231-22.23a7.602 7.602 0 0 0 0-10.753 7.601 7.601 0 0 0-10.753 0l-22.231 22.23-3.221-3.221 50.532-50.532 41.454 41.453-50.533 50.532zM138.077 429.58a7.606 7.606 0 0 0-10.491 2.362L84.333 500.33a7.604 7.604 0 0 0 12.852 8.129l43.252-68.388a7.602 7.602 0 0 0-2.36-10.491z"/></svg>